<svg width="61" height="60" viewBox="0 0 61 60" fill="none" xmlns="http://www.w3.org/2000/svg">
<g clip-path="url(#clip0_4961_164)">
<path d="M58.0842 13.2388L30.9504 0.0873633C30.7098 -0.0291211 30.4297 -0.0291211 30.1892 0.0873633L3.05533 13.2388C2.75279 13.3854 2.56055 13.6931 2.56055 14.0303V45.9697C2.56055 46.3069 2.75279 46.6145 3.05533 46.7611L30.1891 59.9126C30.3094 59.9709 30.4396 60 30.5698 60C30.6999 60 30.83 59.9709 30.9504 59.9126L58.0842 46.7611C58.3867 46.6145 58.579 46.3069 58.579 45.9697V14.0304C58.579 13.6929 58.3866 13.3856 58.0842 13.2388ZM30.5698 1.8549L55.69 14.0303L48.4082 17.5598C48.3621 17.5245 48.3134 17.4919 48.2599 17.466L23.3103 5.37346L30.5698 1.8549ZM21.3333 6.36721L46.417 18.5249L41.2796 21.0151L16.2062 8.86224L21.3333 6.36721ZM47.0039 20.1923V29.3969L42.2052 31.7228V22.5182L47.0039 20.1923ZM56.8282 45.4182L31.4452 57.7207V27.7334L37.4998 24.7988C37.9352 24.5877 38.1177 24.0624 37.9075 23.6252C37.6973 23.1882 37.174 23.0047 36.7386 23.2158L30.5698 26.2059L28.1424 25.0293C27.7069 24.818 27.1837 25.0015 26.9735 25.4386C26.7633 25.8758 26.9458 26.4012 27.3812 26.6123L29.6944 27.7334V57.7207L4.31136 45.4179V15.4306L23.6403 24.7992C23.763 24.8587 23.8926 24.8868 24.0202 24.8868C24.3456 24.8868 24.6582 24.7038 24.8091 24.3898C25.0193 23.9527 24.8368 23.4272 24.4014 23.2162L5.4495 14.0303L14.1458 9.81533L40.4422 22.561C40.4461 22.5664 40.4504 22.5712 40.4544 22.5765V33.1232C40.4544 33.4257 40.6092 33.7068 40.8644 33.8677C41.0061 33.957 41.1678 34.0021 41.3299 34.0021C41.4597 34.0021 41.5898 33.9732 41.7104 33.9147L48.2599 30.7402C48.5625 30.5936 48.7547 30.2861 48.7547 29.9487V19.3438L56.8282 15.4307V45.4182Z" fill="#304DC0" stroke="#304DC0" stroke-width="0.5"/>
<path d="M11.536 42.0093L7.55409 40.0793C7.11848 39.868 6.59534 40.0515 6.38513 40.4886C6.17491 40.9257 6.35747 41.4512 6.79283 41.6623L10.7748 43.5922C10.8974 43.6518 11.0271 43.6799 11.1547 43.6799C11.4801 43.6799 11.7927 43.4968 11.9436 43.1829C12.1539 42.7457 11.9714 42.2204 11.536 42.0093Z" fill="#304DC0"/>
<path d="M15.2005 39.6143L7.55938 35.9107C7.1239 35.6997 6.60064 35.883 6.39043 36.3202C6.18033 36.7573 6.36288 37.2828 6.79825 37.4938L14.4394 41.1974C14.562 41.2568 14.6917 41.2851 14.8193 41.2851C15.1447 41.2851 15.4573 41.102 15.6082 40.7881C15.8184 40.3507 15.6359 39.8253 15.2005 39.6143Z" fill="#304DC0"/>
</g>
<defs>
<clipPath id="clip0_4961_164">
<rect width="59.761" height="60" fill="white" transform="translate(0.689453)"/>
</clipPath>
</defs>
</svg>
