<svg width="38" height="39" viewBox="0 0 38 39" fill="none" xmlns="http://www.w3.org/2000/svg">
<g clip-path="url(#clip0_1803_78)">
<mask id="path-1-inside-1_1803_78" fill="white">
<path d="M37.7031 29.8319L31.6055 23.766L32.8089 22.8964C33.9867 22.0453 34.4758 20.5481 34.0259 19.1707L33.2041 16.6553C33.1173 16.3895 33.1173 16.1084 33.2041 15.8426L34.0259 13.3271C34.4759 11.9498 33.9867 10.4525 32.8089 9.60152L30.6576 8.04672C30.4301 7.88242 30.264 7.65507 30.1773 7.3892L29.3555 4.87369C28.9056 3.49652 27.6252 2.5711 26.1694 2.5711H23.51C23.229 2.5711 22.9603 2.48426 22.7329 2.31996L20.5816 0.765261C19.4038 -0.0858162 17.8211 -0.0858162 16.6431 0.765261L14.4917 2.32006C14.2644 2.48436 13.9956 2.5712 13.7146 2.5712H11.0554C9.59951 2.5712 8.31906 3.49652 7.86913 4.87379L7.04734 7.3894C6.96054 7.65507 6.79443 7.88242 6.56708 8.04682L4.41577 9.60152C3.23794 10.4527 2.74886 11.9499 3.1987 13.3271L4.02049 15.8426C4.10729 16.1084 4.10729 16.3895 4.02049 16.6552L3.1987 19.1708C2.74886 20.5481 3.23794 22.0454 4.41577 22.8964L5.61914 23.766L-0.478464 29.8318C-0.720417 30.0725 -0.823952 30.4183 -0.75388 30.7515C-0.683809 31.0847 -0.449461 31.3602 -0.130744 31.4842L4.76663 33.3901L6.68279 38.2613C6.80741 38.5783 7.08445 38.8113 7.4195 38.8811C7.48855 38.8955 7.55812 38.9025 7.62717 38.9025C7.89326 38.9025 8.15205 38.7982 8.34421 38.607L15.8401 31.1522L16.6431 31.7326C17.2321 32.1581 17.9222 32.3708 18.6123 32.3708C19.3024 32.3708 19.9926 32.1581 20.5815 31.7325L21.3846 31.1521L28.8806 38.607C29.0728 38.7982 29.3315 38.9025 29.5976 38.9025C29.6666 38.9025 29.7362 38.8955 29.8052 38.8811C30.1403 38.8114 30.4172 38.5783 30.542 38.2613L32.4581 33.3901L37.3555 31.4842C37.6742 31.3603 37.9084 31.0847 37.9786 30.7515C38.0487 30.4184 37.9451 30.0725 37.7031 29.8319ZM8.00653 36.0902L6.49366 32.2442C6.39064 31.9822 6.18225 31.775 5.9188 31.6724L2.05211 30.1677L7.06955 25.1763L7.86923 27.6241C8.31916 29.0014 9.59951 29.9267 11.0555 29.9267H13.7147C13.8595 29.9267 14.001 29.9502 14.1353 29.995L8.00653 36.0902ZM17.8351 30.1006L15.6838 28.5458C15.1076 28.1295 14.4268 27.9095 13.7147 27.9095H11.0555C10.4809 27.9095 9.97562 27.5443 9.79816 27.0008L8.97637 24.4854C8.76616 23.8417 8.37088 23.2888 7.83364 22.8774C7.81518 22.8617 7.79612 22.8471 7.77685 22.833C7.77087 22.8285 7.76539 22.8236 7.75931 22.8192L5.60799 21.2644C5.14325 20.9287 4.95017 20.3377 5.12773 19.7943L5.94952 17.2788C6.16957 16.6051 6.16957 15.893 5.94952 15.2194L5.12773 12.7039C4.95017 12.1604 5.14325 11.5695 5.60799 11.2336L7.75931 9.67888C8.33559 9.26242 8.75642 8.68629 8.97637 8.01283L9.79816 5.49732C9.97562 4.95378 10.481 4.58865 11.0555 4.58865H13.7147C14.4269 4.58865 15.1078 4.36857 15.6839 3.95221L17.8351 2.39762C18.3 2.06175 18.9249 2.06165 19.3895 2.39762L21.5408 3.95241C22.117 4.36877 22.7978 4.58886 23.51 4.58886H26.1694C26.7438 4.58886 27.249 4.95408 27.4266 5.49753L28.2484 8.01293C28.4683 8.68659 28.8891 9.26272 29.4654 9.67908L31.6169 11.2339C32.0816 11.5697 32.2746 12.1606 32.097 12.7041L31.2752 15.2198C31.0553 15.8933 31.0553 16.6054 31.2752 17.2791L32.097 19.7946C32.2746 20.3381 32.0816 20.9289 31.6167 21.2648L29.4655 22.8194C29.458 22.8249 29.4512 22.831 29.4437 22.8365C29.4266 22.8492 29.4097 22.8622 29.3931 22.8761C28.8549 23.2875 28.4589 23.8411 28.2484 24.4855L27.4266 27.0011C27.249 27.5446 26.7438 27.9098 26.1694 27.9098H23.51C22.798 27.9098 22.1171 28.1299 21.5408 28.5462L19.3896 30.1008C18.9244 30.4366 18.2999 30.4363 17.8351 30.1006ZM31.3059 31.6724C31.0425 31.775 30.8342 31.9822 30.7311 32.2442L29.2182 36.0902L23.0894 29.9951C23.2236 29.9502 23.3651 29.9268 23.5099 29.9268H26.1693C27.625 29.9268 28.9055 29.0015 29.3554 27.6243L30.1551 25.1763L35.1727 30.1678L31.3059 31.6724Z"/>
</mask>
<path d="M37.7031 29.8319L31.6055 23.766L32.8089 22.8964C33.9867 22.0453 34.4758 20.5481 34.0259 19.1707L33.2041 16.6553C33.1173 16.3895 33.1173 16.1084 33.2041 15.8426L34.0259 13.3271C34.4759 11.9498 33.9867 10.4525 32.8089 9.60152L30.6576 8.04672C30.4301 7.88242 30.264 7.65507 30.1773 7.3892L29.3555 4.87369C28.9056 3.49652 27.6252 2.5711 26.1694 2.5711H23.51C23.229 2.5711 22.9603 2.48426 22.7329 2.31996L20.5816 0.765261C19.4038 -0.0858162 17.8211 -0.0858162 16.6431 0.765261L14.4917 2.32006C14.2644 2.48436 13.9956 2.5712 13.7146 2.5712H11.0554C9.59951 2.5712 8.31906 3.49652 7.86913 4.87379L7.04734 7.3894C6.96054 7.65507 6.79443 7.88242 6.56708 8.04682L4.41577 9.60152C3.23794 10.4527 2.74886 11.9499 3.1987 13.3271L4.02049 15.8426C4.10729 16.1084 4.10729 16.3895 4.02049 16.6552L3.1987 19.1708C2.74886 20.5481 3.23794 22.0454 4.41577 22.8964L5.61914 23.766L-0.478464 29.8318C-0.720417 30.0725 -0.823952 30.4183 -0.75388 30.7515C-0.683809 31.0847 -0.449461 31.3602 -0.130744 31.4842L4.76663 33.3901L6.68279 38.2613C6.80741 38.5783 7.08445 38.8113 7.4195 38.8811C7.48855 38.8955 7.55812 38.9025 7.62717 38.9025C7.89326 38.9025 8.15205 38.7982 8.34421 38.607L15.8401 31.1522L16.6431 31.7326C17.2321 32.1581 17.9222 32.3708 18.6123 32.3708C19.3024 32.3708 19.9926 32.1581 20.5815 31.7325L21.3846 31.1521L28.8806 38.607C29.0728 38.7982 29.3315 38.9025 29.5976 38.9025C29.6666 38.9025 29.7362 38.8955 29.8052 38.8811C30.1403 38.8114 30.4172 38.5783 30.542 38.2613L32.4581 33.3901L37.3555 31.4842C37.6742 31.3603 37.9084 31.0847 37.9786 30.7515C38.0487 30.4184 37.9451 30.0725 37.7031 29.8319ZM8.00653 36.0902L6.49366 32.2442C6.39064 31.9822 6.18225 31.775 5.9188 31.6724L2.05211 30.1677L7.06955 25.1763L7.86923 27.6241C8.31916 29.0014 9.59951 29.9267 11.0555 29.9267H13.7147C13.8595 29.9267 14.001 29.9502 14.1353 29.995L8.00653 36.0902ZM17.8351 30.1006L15.6838 28.5458C15.1076 28.1295 14.4268 27.9095 13.7147 27.9095H11.0555C10.4809 27.9095 9.97562 27.5443 9.79816 27.0008L8.97637 24.4854C8.76616 23.8417 8.37088 23.2888 7.83364 22.8774C7.81518 22.8617 7.79612 22.8471 7.77685 22.833C7.77087 22.8285 7.76539 22.8236 7.75931 22.8192L5.60799 21.2644C5.14325 20.9287 4.95017 20.3377 5.12773 19.7943L5.94952 17.2788C6.16957 16.6051 6.16957 15.893 5.94952 15.2194L5.12773 12.7039C4.95017 12.1604 5.14325 11.5695 5.60799 11.2336L7.75931 9.67888C8.33559 9.26242 8.75642 8.68629 8.97637 8.01283L9.79816 5.49732C9.97562 4.95378 10.481 4.58865 11.0555 4.58865H13.7147C14.4269 4.58865 15.1078 4.36857 15.6839 3.95221L17.8351 2.39762C18.3 2.06175 18.9249 2.06165 19.3895 2.39762L21.5408 3.95241C22.117 4.36877 22.7978 4.58886 23.51 4.58886H26.1694C26.7438 4.58886 27.249 4.95408 27.4266 5.49753L28.2484 8.01293C28.4683 8.68659 28.8891 9.26272 29.4654 9.67908L31.6169 11.2339C32.0816 11.5697 32.2746 12.1606 32.097 12.7041L31.2752 15.2198C31.0553 15.8933 31.0553 16.6054 31.2752 17.2791L32.097 19.7946C32.2746 20.3381 32.0816 20.9289 31.6167 21.2648L29.4655 22.8194C29.458 22.8249 29.4512 22.831 29.4437 22.8365C29.4266 22.8492 29.4097 22.8622 29.3931 22.8761C28.8549 23.2875 28.4589 23.8411 28.2484 24.4855L27.4266 27.0011C27.249 27.5446 26.7438 27.9098 26.1694 27.9098H23.51C22.798 27.9098 22.1171 28.1299 21.5408 28.5462L19.3896 30.1008C18.9244 30.4366 18.2999 30.4363 17.8351 30.1006ZM31.3059 31.6724C31.0425 31.775 30.8342 31.9822 30.7311 32.2442L29.2182 36.0902L23.0894 29.9951C23.2236 29.9502 23.3651 29.9268 23.5099 29.9268H26.1693C27.625 29.9268 28.9055 29.0015 29.3554 27.6243L30.1551 25.1763L35.1727 30.1678L31.3059 31.6724Z" fill="#304DC0" stroke="white" stroke-width="0.2" mask="url(#path-1-inside-1_1803_78)"/>
<path d="M23.4204 17.9267L23.4015 17.9451L23.4059 17.9711L24.2048 22.6175C24.2662 22.9751 24.1188 23.3365 23.8246 23.5497C23.6581 23.6703 23.4609 23.7318 23.2627 23.7318C23.1106 23.7318 22.958 23.6956 22.8182 23.6223L18.6353 21.4286L18.6121 21.4164L18.5889 21.4286L14.4062 23.6224C14.0842 23.7911 13.694 23.7631 13.3998 23.5497L13.3997 23.5497C13.1054 23.3365 12.9581 22.9751 13.0197 22.6175L12.9704 22.6091L13.0197 22.6175L13.8185 17.9711L13.823 17.9451L13.8041 17.9267L10.4202 14.6361L10.3853 14.6719L10.4202 14.6361C10.1597 14.3828 10.0659 14.004 10.1784 13.659C10.2908 13.314 10.5898 13.0624 10.9498 13.0103L15.6263 12.3323L15.6523 12.3285L15.6639 12.305L17.7552 8.07744L17.7552 8.07744C17.9161 7.75214 18.2483 7.54609 18.6121 7.54609C18.976 7.54609 19.3081 7.75214 19.4691 8.07745L21.5604 12.305L21.5721 12.3285L21.5981 12.3323L26.2746 13.0103C26.6346 13.0625 26.9335 13.314 27.046 13.659C27.1583 14.004 27.0647 14.3828 26.8042 14.6361L26.8391 14.6719L26.8042 14.6361L23.4204 17.9267ZM16.4315 14.1924C16.759 14.1449 17.0422 13.9397 17.1886 13.6437L13.2934 14.6979L13.2554 14.7034L13.2482 14.654L13.2831 14.6181L13.3106 14.6449L16.4315 14.1924ZM15.2477 20.9364L15.2306 21.0362L15.3202 20.9892L18.1674 19.4958C18.1674 19.4958 18.1674 19.4958 18.1674 19.4958C18.3066 19.4229 18.4594 19.3864 18.6121 19.3864C18.7649 19.3864 18.9176 19.4228 19.0568 19.4958L21.904 20.9893L21.9937 21.0363L21.9765 20.9365L21.4327 17.7736C21.3796 17.4643 21.4824 17.1488 21.7075 16.9298L24.011 14.6899L24.0837 14.6191L23.9833 14.6046L20.7999 14.143L20.7927 14.1925L20.7999 14.143C20.4886 14.0979 20.2196 13.9029 20.0804 13.6216L18.6569 10.7439L18.6121 10.6533L18.5673 10.7439L17.1438 13.6215L17.1438 13.6215C17.0047 13.9027 16.7356 14.0978 16.4243 14.1429L16.4243 14.1429L13.2411 14.6045L13.1406 14.619L13.2134 14.6898L15.5168 16.9297C15.742 17.1488 15.8448 17.4643 15.7916 17.7734L15.7915 17.7734L15.2477 20.9364Z" fill="#304DC0" stroke="white" stroke-width="0.1"/>
</g>
<defs>
<clipPath id="clip0_1803_78">
<rect width="38" height="38" fill="white" transform="translate(0 0.515625)"/>
</clipPath>
</defs>
</svg>
