<svg width="36" height="37" viewBox="0 0 36 37" fill="none" xmlns="http://www.w3.org/2000/svg">
<g clip-path="url(#clip0_1803_63)">
<path d="M27.1406 16.6875C27.9173 16.6875 28.5469 16.0579 28.5469 15.2812C28.5469 14.5046 27.9173 13.875 27.1406 13.875C26.364 13.875 25.7344 14.5046 25.7344 15.2812C25.7344 16.0579 26.364 16.6875 27.1406 16.6875Z" fill="#304DC0"/>
<path d="M28.3469 3.32812V3.52813H28.5469H30.375C33.3662 3.52813 35.8 5.96196 35.8 8.95312V16.9688C35.8 17.635 35.26 18.175 34.5938 18.175C33.9275 18.175 33.3875 17.635 33.3875 16.9688V8.95312C33.3875 7.29186 32.0363 5.94063 30.375 5.94063H28.5469H28.3469V6.14062V7.54688C28.3469 8.21309 27.8068 8.75313 27.1406 8.75313C26.4744 8.75313 25.9344 8.21309 25.9344 7.54688V6.14062V5.94063H25.7344H19.3359H19.1359V6.14062V7.54688C19.1359 8.21309 18.5959 8.75313 17.9297 8.75313C17.2635 8.75313 16.7234 8.21309 16.7234 7.54688V6.14062V5.94063H16.5234H10.1953H9.99531V6.14062V7.54688C9.99531 8.21309 9.45528 8.75313 8.78906 8.75313C8.12285 8.75313 7.58281 8.21309 7.58281 7.54688V6.14062V5.94063H7.38281H5.625C3.96373 5.94063 2.6125 7.29186 2.6125 8.95312V30.8906C2.6125 32.5519 3.96373 33.9031 5.625 33.9031H16.3828C17.049 33.9031 17.5891 34.4432 17.5891 35.1094C17.5891 35.7756 17.049 36.3156 16.3828 36.3156H5.625C2.63383 36.3156 0.2 33.8818 0.2 30.8906V8.95312C0.2 5.96196 2.63383 3.52813 5.625 3.52813H7.38281H7.58281V3.32812V1.92188C7.58281 1.25566 8.12285 0.715625 8.78906 0.715625C9.45528 0.715625 9.99531 1.25566 9.99531 1.92188V3.32812V3.52813H10.1953H16.5234H16.7234V3.32812V1.92188C16.7234 1.25566 17.2635 0.715625 17.9297 0.715625C18.5959 0.715625 19.1359 1.25566 19.1359 1.92188V3.32812V3.52813H19.3359H25.7344H25.9344V3.32812V1.92188C25.9344 1.25566 26.4744 0.715625 27.1406 0.715625C27.8068 0.715625 28.3469 1.25566 28.3469 1.92188V3.32812Z" fill="#304DC0" stroke="white" stroke-width="0.4"/>
<path d="M19.2344 28.0078C19.2344 23.4546 22.939 19.75 27.4922 19.75C32.0454 19.75 35.75 23.4546 35.75 28.0078C35.75 32.561 32.0454 36.2656 27.4922 36.2656C22.939 36.2656 19.2344 32.561 19.2344 28.0078ZM21.5469 28.0078C21.5469 31.2863 24.2138 33.9531 27.4922 33.9531C30.7706 33.9531 33.4375 31.2863 33.4375 28.0078C33.4375 24.7293 30.7706 22.0625 27.4922 22.0625C24.2138 22.0625 21.5469 24.7293 21.5469 28.0078Z" fill="#304DC0" stroke="white" stroke-width="0.5"/>
<path d="M28.6484 26.6016V26.8516H28.8984H29.5312C30.1699 26.8516 30.6875 27.3692 30.6875 28.0078C30.6875 28.6464 30.1699 29.1641 29.5312 29.1641H27.4922C26.8536 29.1641 26.3359 28.6464 26.3359 28.0078V25.125C26.3359 24.4864 26.8536 23.9688 27.4922 23.9688C28.1308 23.9688 28.6484 24.4864 28.6484 25.125V26.6016Z" fill="#304DC0" stroke="white" stroke-width="0.5"/>
<path d="M21.0234 16.6875C21.8001 16.6875 22.4297 16.0579 22.4297 15.2812C22.4297 14.5046 21.8001 13.875 21.0234 13.875C20.2468 13.875 19.6172 14.5046 19.6172 15.2812C19.6172 16.0579 20.2468 16.6875 21.0234 16.6875Z" fill="#304DC0"/>
<path d="M14.9062 22.8047C15.6829 22.8047 16.3125 22.1751 16.3125 21.3984C16.3125 20.6218 15.6829 19.9922 14.9062 19.9922C14.1296 19.9922 13.5 20.6218 13.5 21.3984C13.5 22.1751 14.1296 22.8047 14.9062 22.8047Z" fill="#304DC0"/>
<path d="M8.78906 16.6875C9.56571 16.6875 10.1953 16.0579 10.1953 15.2812C10.1953 14.5046 9.56571 13.875 8.78906 13.875C8.01241 13.875 7.38281 14.5046 7.38281 15.2812C7.38281 16.0579 8.01241 16.6875 8.78906 16.6875Z" fill="#304DC0"/>
<path d="M8.78906 22.8047C9.56571 22.8047 10.1953 22.1751 10.1953 21.3984C10.1953 20.6218 9.56571 19.9922 8.78906 19.9922C8.01241 19.9922 7.38281 20.6218 7.38281 21.3984C7.38281 22.1751 8.01241 22.8047 8.78906 22.8047Z" fill="#304DC0"/>
<path d="M8.78906 28.9219C9.56571 28.9219 10.1953 28.2923 10.1953 27.5156C10.1953 26.739 9.56571 26.1094 8.78906 26.1094C8.01241 26.1094 7.38281 26.739 7.38281 27.5156C7.38281 28.2923 8.01241 28.9219 8.78906 28.9219Z" fill="#304DC0"/>
<path d="M14.9062 28.9219C15.6829 28.9219 16.3125 28.2923 16.3125 27.5156C16.3125 26.739 15.6829 26.1094 14.9062 26.1094C14.1296 26.1094 13.5 26.739 13.5 27.5156C13.5 28.2923 14.1296 28.9219 14.9062 28.9219Z" fill="#304DC0"/>
<path d="M14.9062 16.6875C15.6829 16.6875 16.3125 16.0579 16.3125 15.2812C16.3125 14.5046 15.6829 13.875 14.9062 13.875C14.1296 13.875 13.5 14.5046 13.5 15.2812C13.5 16.0579 14.1296 16.6875 14.9062 16.6875Z" fill="#304DC0"/>
</g>
<defs>
<clipPath id="clip0_1803_63">
<rect width="36" height="36" fill="white" transform="translate(0 0.515625)"/>
</clipPath>
</defs>
</svg>
