<svg width="18" height="18" viewBox="0 0 18 18" fill="none" xmlns="http://www.w3.org/2000/svg">
<path d="M17.5104 13.2365L15.0914 10.8176C14.2275 9.95372 12.7589 10.2993 12.4133 11.4224C12.1542 12.1999 11.2903 12.6318 10.5128 12.459C8.78497 12.0271 6.45244 9.78095 6.02049 7.96676C5.76132 7.18921 6.27966 6.32531 7.05717 6.06618C8.18024 5.72062 8.5258 4.25199 7.6619 3.38809L5.24298 0.969172C4.55187 0.364443 3.51519 0.364443 2.91046 0.969172L1.26905 2.61058C-0.372359 4.33838 1.44183 8.91705 5.50215 12.9774C9.56248 17.0377 14.1411 18.9383 15.8689 17.2105L17.5104 15.5691C18.1151 14.878 18.1151 13.8413 17.5104 13.2365Z" fill="white"/>
</svg>
