<svg width="39" height="40" viewBox="0 0 39 40" fill="none" xmlns="http://www.w3.org/2000/svg">
<path d="M7.31248 21.6406C5.07325 21.6406 3.25 23.4639 3.25 25.7031C3.25 27.9423 5.07325 29.7656 7.31248 29.7656C9.5517 29.7656 11.375 27.9424 11.375 25.7032C11.375 23.464 9.5517 21.6406 7.31248 21.6406ZM7.31248 28.1407C5.96858 28.1407 4.87498 27.0471 4.87498 25.7032C4.87498 24.3593 5.96858 23.2657 7.31248 23.2657C8.65638 23.2657 9.74998 24.3593 9.74998 25.7032C9.74998 27.047 8.65638 28.1407 7.31248 28.1407Z" fill="#304DC0"/>
<path d="M31.6875 21.6406C29.4483 21.6406 27.625 23.4639 27.625 25.7031C27.625 27.9423 29.4483 29.7656 31.6875 29.7656C33.9267 29.7656 35.75 27.9424 35.75 25.7032C35.75 23.464 33.9267 21.6406 31.6875 21.6406ZM31.6875 28.1407C30.3436 28.1407 29.25 27.0471 29.25 25.7032C29.25 24.3593 30.3436 23.2657 31.6875 23.2657C33.0314 23.2657 34.125 24.3593 34.125 25.7032C34.125 27.047 33.0314 28.1407 31.6875 28.1407Z" fill="#304DC0"/>
<path d="M34.125 16.7656H32.7502C32.2481 16.7656 31.7558 16.5934 31.3625 16.2781L24.96 11.1561C24.2418 10.5825 23.3399 10.2656 22.4217 10.2656H10.6763C9.31453 10.2656 8.0519 10.9417 7.29628 12.0743L5.91338 14.151C5.499 14.7701 4.80675 15.1406 4.06247 15.1406C1.82325 15.1406 0 16.9639 0 19.2031V22.4531C0 24.6923 1.82325 26.5156 4.06247 26.5156C4.51097 26.5156 4.875 26.1516 4.875 25.7031C4.875 25.2546 4.51097 24.8906 4.06247 24.8906C2.71857 24.8906 1.62497 23.797 1.62497 22.4531V19.2031C1.62497 17.8592 2.71857 16.7656 4.06247 16.7656C5.35275 16.7656 6.54872 16.1254 7.26535 15.0512L8.64825 12.976C9.10163 12.2968 9.86053 11.8905 10.6763 11.8905H22.4217C22.9742 11.8905 23.5137 12.0806 23.946 12.4252L30.3485 17.5455C31.0261 18.0899 31.8808 18.3905 32.7519 18.3905H34.125C36.5089 18.3905 37.375 20.8198 37.375 22.453C37.375 24.0536 36.1498 24.8905 34.9375 24.8905C34.489 24.8905 34.125 25.2545 34.125 25.703C34.125 26.1515 34.489 26.5155 34.9375 26.5155C37.2532 26.5156 39 24.7688 39 22.4531C39 19.6955 37.2921 16.7656 34.125 16.7656Z" fill="#304DC0"/>
<path d="M28.4375 24.8906H10.5625C10.114 24.8906 9.75 25.2546 9.75 25.7031C9.75 26.1516 10.114 26.5157 10.5625 26.5157H28.4376C28.8861 26.5157 29.2501 26.1516 29.2501 25.7031C29.2501 25.2546 28.886 24.8906 28.4375 24.8906Z" fill="#304DC0"/>
<path d="M26.8126 16.7657H19.5001V14.3282C19.5001 13.8796 19.136 13.5156 18.6875 13.5156C18.239 13.5156 17.875 13.8796 17.875 14.3282V17.5782C17.875 18.0267 18.239 18.3907 18.6875 18.3907H26.8126C27.2611 18.3907 27.6251 18.0267 27.6251 17.5782C27.6251 17.1297 27.2611 16.7657 26.8126 16.7657Z" fill="#304DC0"/>
<path d="M15.4376 16.7653H10.2522L11.2906 14.6918C11.4905 14.2904 11.328 13.8029 10.9266 13.6014C10.5236 13.4015 10.0377 13.5624 9.8362 13.9654L8.21122 17.2154C8.08447 17.4657 8.0991 17.7663 8.24695 18.0052C8.3948 18.2441 8.65645 18.3903 8.9376 18.3903H15.4376C15.8861 18.3903 16.2501 18.0263 16.2501 17.5778C16.2501 17.1293 15.8861 16.7653 15.4376 16.7653Z" fill="#304DC0"/>
<path d="M21.9375 20.0156H20.3125C19.864 20.0156 19.5 20.3796 19.5 20.8281C19.5 21.2766 19.864 21.6407 20.3125 21.6407H21.9375C22.386 21.6407 22.75 21.2766 22.75 20.8281C22.75 20.3796 22.386 20.0156 21.9375 20.0156Z" fill="#304DC0"/>
</svg>
