<svg width="19" height="19" viewBox="0 0 19 19" fill="none" xmlns="http://www.w3.org/2000/svg">
<g clip-path="url(#clip0_2388_778)">
<path d="M12.707 9.61118L19 13.5895V5.46484L12.707 9.61118Z" fill="white"/>
<path d="M0.333008 5.46484V13.5895L6.62601 9.61118L0.333008 5.46484Z" fill="white"/>
<path d="M17.8332 3.09863H1.49983C0.917664 3.09863 0.455664 3.53263 0.368164 4.09147L9.6665 10.2176L18.9648 4.09147C18.8773 3.53263 18.4153 3.09863 17.8332 3.09863Z" fill="white"/>
<path d="M11.6378 10.3166L9.98696 11.4039C9.88896 11.4681 9.77812 11.4996 9.66612 11.4996C9.55412 11.4996 9.44329 11.4681 9.34529 11.4039L7.69446 10.3154L0.370117 14.9483C0.459951 15.5024 0.919618 15.9329 1.49945 15.9329H17.8328C18.4126 15.9329 18.8723 15.5024 18.9621 14.9483L11.6378 10.3166Z" fill="white"/>
</g>
<defs>
<clipPath id="clip0_2388_778">
<rect width="18.6667" height="18.6667" fill="white" transform="translate(0.333008 0.182617)"/>
</clipPath>
</defs>
</svg>
