<svg width="16" height="23" viewBox="0 0 16 23" fill="none" xmlns="http://www.w3.org/2000/svg">
<path d="M14.8438 22.3906C14.6527 22.3912 14.468 22.3217 14.3247 22.1953L7.8125 16.4048L1.3003 22.1953C1.1876 22.2955 1.04832 22.3609 0.89927 22.3837C0.750217 22.4065 0.597757 22.3856 0.460286 22.3237C0.322815 22.2617 0.206207 22.1613 0.124534 22.0346C0.0428599 21.9078 -0.000389934 21.7602 2.64907e-06 21.6094V3.64062C0.000907364 2.8121 0.330438 2.01777 0.916293 1.43192C1.50215 0.84606 2.29648 0.51653 3.125 0.515625H12.5C13.3285 0.51653 14.1229 0.84606 14.7087 1.43192C15.2946 2.01777 15.6241 2.8121 15.625 3.64062V21.6094C15.625 21.8166 15.5427 22.0153 15.3962 22.1618C15.2497 22.3083 15.051 22.3906 14.8438 22.3906Z" fill="#304DC0"/>
</svg>
