<svg width="56" height="56" viewBox="0 0 56 56" fill="none" xmlns="http://www.w3.org/2000/svg">
<g clip-path="url(#clip0_4248_1789)">
<path d="M52.1869 47.1764C52.098 47.0427 51.9757 46.9344 51.8322 46.8623L49.8986 45.896C49.859 45.7511 49.7837 45.6183 49.6797 45.5098L33.4545 29.2847L35.813 26.9289C37.8501 24.8902 40.2032 23.1939 42.7815 21.9061L43.7487 21.4192C44.1366 21.4655 44.5267 21.4899 44.9173 21.4922C47.599 21.4951 50.1706 20.4257 52.0594 18.5221L53.1569 17.4246C55.9041 14.6754 56.5846 10.4773 54.8466 7.00108C54.6183 6.54483 54.0633 6.36006 53.6071 6.58836C53.519 6.63248 53.4384 6.69045 53.3685 6.75996L48.7956 11.3329C47.7146 12.4165 45.9598 12.4189 44.8761 11.3379C44.355 10.8181 44.062 10.1123 44.0619 9.37624C44.0604 8.64099 44.3528 7.93553 44.8739 7.4168L49.4469 2.84387C49.8073 2.48277 49.8067 1.89775 49.4455 1.53735C49.3758 1.46783 49.2955 1.40986 49.2076 1.36575C45.734 -0.37936 41.533 0.299536 38.7859 3.04988L37.6884 4.14739C35.7769 6.04908 34.7057 8.6366 34.7137 11.3329C34.7156 11.7088 34.74 12.0842 34.7867 12.4572L34.3072 13.4235C33.0173 16.0019 31.319 18.3548 29.2779 20.391L26.9194 22.7495L25.5059 21.337L28.1185 18.7217C28.4786 18.361 28.4786 17.7769 28.1185 17.4163L26.8529 16.1507C26.6829 15.9806 26.4532 15.8834 26.2126 15.88L24.2514 15.8532L23.9299 14.7067C23.8864 14.5543 23.805 14.4155 23.6934 14.303L11.2882 1.89325C8.76088 -0.632373 4.66476 -0.630871 2.13913 1.89648C-0.386492 4.42384 -0.384991 8.51997 2.14236 11.0456L14.4939 23.3971C14.6028 23.5058 14.7371 23.5855 14.8847 23.629L16.1125 23.9939L16.1817 26.0263C16.1899 26.2604 16.2866 26.4826 16.4524 26.6481L17.6719 27.8675C18.0326 28.2282 18.6174 28.2282 18.9782 27.8675L21.5852 25.2586L22.9959 26.6693L20.1828 29.4815C18.1498 31.5241 15.7966 33.2208 13.2163 34.5043L12.2573 34.9921C11.8834 34.945 11.5071 34.9202 11.1303 34.9182C8.43373 34.91 5.8461 35.9808 3.94382 37.892L2.84632 38.9895C0.0938972 41.7348 -0.586616 45.9364 1.15849 49.4102C1.38748 49.8661 1.9427 50.0501 2.39873 49.8211C2.48672 49.7769 2.56698 49.719 2.63661 49.6495L7.20955 45.0775C8.28292 43.9862 10.0376 43.9718 11.1289 45.0451C12.2201 46.1185 12.2346 47.8732 11.1612 48.9645C11.1507 48.9752 11.1401 48.9858 11.1293 48.9963L6.5564 53.5693C6.19634 53.9307 6.1975 54.5157 6.55894 54.8758C6.62881 54.9453 6.7093 55.0033 6.79752 55.0474C10.2723 56.7836 14.468 56.1036 17.2164 53.3586L18.3139 52.2611C20.5032 50.0861 21.5708 47.0254 21.2092 43.9606L21.7034 42.9795C22.9885 40.4018 24.6832 38.0497 26.7217 36.0147L29.5329 33.2035L45.285 48.952C45.2739 49.1089 45.3035 49.2662 45.3709 49.4084L46.6708 52.0219C46.7428 52.1654 46.8511 52.2877 46.9849 52.3766L50.9047 54.9901C51.271 55.234 51.7584 55.1856 52.0696 54.8746L54.6831 52.2611C54.9947 51.9504 55.0437 51.4628 54.8004 51.0962L52.1869 47.1764ZM38.9947 5.45367L40.0922 4.35617C41.9353 2.50979 44.636 1.81022 47.1438 2.52977L43.5676 6.10682C41.7559 7.90274 41.743 10.8275 43.539 12.6392C45.3349 14.4509 48.2596 14.4639 50.0714 12.6678C50.0809 12.6584 50.0905 12.6488 50.1 12.6392L53.6752 9.06398C54.3902 11.5711 53.6922 14.269 51.8507 16.1146L50.7531 17.2121C48.9103 19.0687 46.2949 19.9389 43.7071 19.5568H43.6868C43.2573 19.4955 42.8332 19.401 42.4184 19.2741L42.362 19.2566C41.9586 19.1296 41.5655 18.9721 41.186 18.7854L41.1306 18.7577C40.7441 18.5641 40.3734 18.3405 40.022 18.0888C39.6585 17.8261 39.3165 17.5348 38.9993 17.2177C37.7215 15.9445 36.8975 14.2868 36.6537 12.4997C36.5954 12.1154 36.5661 11.7271 36.566 11.3384C36.5566 9.13108 37.4312 7.01182 38.9947 5.45367ZM30.5833 21.6982C32.5149 19.773 34.1597 17.5803 35.4675 15.1871C35.5082 15.2869 35.5599 15.3811 35.6043 15.479C35.6754 15.6407 35.7474 15.8024 35.8278 15.9594C35.8953 16.0906 35.9682 16.219 36.0412 16.3474C36.1142 16.4758 36.1964 16.6172 36.2805 16.7493C36.3646 16.8814 36.4449 17.0052 36.5327 17.1308C36.6205 17.2565 36.7175 17.3793 36.8098 17.5004C36.9022 17.6214 36.9946 17.7442 37.0935 17.8625C37.1923 17.9807 37.3216 18.1175 37.439 18.2431C37.524 18.3355 37.6006 18.4279 37.6893 18.5203C37.7595 18.5896 37.8353 18.6496 37.9064 18.7161C38.0598 18.8602 38.2131 19.0034 38.3739 19.1374C38.457 19.2067 38.5439 19.2704 38.6289 19.3378C38.797 19.469 38.967 19.5956 39.1425 19.7157C39.2247 19.772 39.3088 19.8275 39.3929 19.8811C39.585 20.0043 39.7814 20.1209 39.9823 20.2312C40.0534 20.27 40.1236 20.3106 40.1957 20.3485C40.4599 20.4852 40.7287 20.6127 41.0049 20.7254L41.0308 20.7374C38.6351 22.0449 36.439 23.6887 34.5095 25.6189L32.1482 27.9784L28.8576 24.6886L28.2257 24.0558L30.5833 21.6982ZM18.3278 25.9127L18.0192 25.6042L17.9398 23.2669C17.9264 22.8696 17.6603 22.5254 17.2792 22.4123L15.6376 21.9246L3.45327 9.74577C1.64766 7.94142 1.64662 5.01486 3.45096 3.20924C5.25531 1.40362 8.18187 1.40258 9.98749 3.20693L22.2152 15.4384L22.6578 17.0172C22.7686 17.4111 23.1253 17.6851 23.5345 17.6907L25.8108 17.7221L26.1591 18.0704L18.3278 25.9127ZM17.0086 50.9567L15.9074 52.057C14.0625 53.8991 11.3643 54.597 8.85765 53.8806L12.4329 50.3054C14.2147 48.4797 14.1791 45.5553 12.3534 43.7735C10.5603 42.0235 7.69894 42.022 5.90418 43.7703L2.32713 47.3455C1.6062 44.8379 2.30542 42.1367 4.15261 40.2939L5.25011 39.1964C8.50129 35.9595 13.7574 35.9595 17.0086 39.1964C18.278 40.4727 19.1003 42.1255 19.3523 43.9079V43.9135C19.7357 46.5003 18.8655 49.1153 17.0086 50.9567ZM25.4154 34.7103C23.4846 36.6379 21.8406 38.8329 20.5339 41.2279C20.521 41.1946 20.5034 41.1642 20.4895 41.1355C20.3879 40.8922 20.2771 40.6539 20.157 40.4205C20.1062 40.3225 20.0516 40.2274 19.9971 40.1304C19.9048 39.9613 19.805 39.7941 19.7006 39.6306C19.6313 39.5216 19.5611 39.4154 19.4881 39.3091C19.3856 39.1613 19.2775 39.0172 19.1666 38.8749C19.0863 38.7696 19.0068 38.6634 18.9209 38.5608C18.7897 38.4047 18.6493 38.2541 18.5079 38.1044C18.4414 38.0352 18.3832 37.9603 18.3149 37.892C18.2465 37.8236 18.1624 37.7562 18.0876 37.6859C17.9444 37.5511 17.8012 37.4162 17.6516 37.2906C17.5416 37.1982 17.4271 37.1132 17.3134 37.0254C17.1822 36.9247 17.0501 36.8249 16.9153 36.7307C16.7961 36.6485 16.676 36.569 16.5531 36.4914C16.4127 36.3991 16.2695 36.3187 16.1254 36.2374C16.0044 36.169 15.8843 36.0997 15.7605 36.0369C15.5896 35.9492 15.414 35.8706 15.2376 35.793C15.1498 35.7542 15.0658 35.708 14.9771 35.6711C17.3735 34.3681 19.5683 32.7244 21.4928 30.7914L24.304 27.9802L28.2266 31.9028L25.4154 34.7103ZM46.4112 47.4702L22.8952 23.9542L24.2033 22.6461L47.7193 46.162L46.4112 47.4702ZM51.301 53.0325L48.2163 50.9761L47.3174 49.1783L48.9886 47.5071L50.7864 48.406L52.8428 51.4907L51.301 53.0325Z" fill="#304DC0"/>
</g>
<defs>
<clipPath id="clip0_4248_1789">
<rect width="56" height="56" fill="white"/>
</clipPath>
</defs>
</svg>
