<svg width="20" height="21" viewBox="0 0 20 21" fill="none" xmlns="http://www.w3.org/2000/svg">
<g clip-path="url(#clip0_1803_354)">
<path d="M14.1904 0.182617H5.80969C2.60621 0.182617 0 2.78883 0 5.9923V14.3729C0 17.5764 2.60621 20.1826 5.80969 20.1826H14.1903C17.3938 20.1826 20 17.5764 20 14.373V5.9923C20 2.78883 17.3938 0.182617 14.1904 0.182617ZM18.4375 14.3729C18.4375 16.7148 16.5322 18.6201 14.1904 18.6201H5.80969C3.46777 18.6201 1.5625 16.7148 1.5625 14.373V5.9923C1.5625 3.65039 3.46777 1.74512 5.80969 1.74512H14.1903C16.5322 1.74512 18.4375 3.65039 18.4375 5.9923V14.3729Z" fill="white"/>
<path d="M10 4.79199C7.02758 4.79199 4.60938 7.2102 4.60938 10.1826C4.60938 13.155 7.02758 15.5732 10 15.5732C12.9724 15.5732 15.3906 13.155 15.3906 10.1826C15.3906 7.2102 12.9724 4.79199 10 4.79199ZM10 14.0107C7.88918 14.0107 6.17188 12.2934 6.17188 10.1826C6.17188 8.0718 7.88918 6.35449 10 6.35449C12.1108 6.35449 13.8281 8.0718 13.8281 10.1826C13.8281 12.2934 12.1108 14.0107 10 14.0107Z" fill="white"/>
<path d="M15.4688 5.49512C15.9002 5.49512 16.25 5.14534 16.25 4.71387C16.25 4.28239 15.9002 3.93262 15.4688 3.93262C15.0373 3.93262 14.6875 4.28239 14.6875 4.71387C14.6875 5.14534 15.0373 5.49512 15.4688 5.49512Z" fill="white"/>
</g>
<defs>
<clipPath id="clip0_1803_354">
<rect width="20" height="20" fill="white" transform="translate(0 0.182617)"/>
</clipPath>
</defs>
</svg>
