<svg width="15" height="23" viewBox="0 0 15 23" fill="none" xmlns="http://www.w3.org/2000/svg">
<path d="M7.77812 0.848633C3.85712 0.848633 0.666992 4.03876 0.666992 7.95976C0.666992 9.13684 0.961284 10.3039 1.52074 11.3391L7.38924 21.9528C7.46737 22.0943 7.61624 22.182 7.77812 22.182C7.93999 22.182 8.08887 22.0943 8.16699 21.9528L14.0377 11.3356C14.5949 10.3039 14.8892 9.1368 14.8892 7.95972C14.8892 4.03876 11.6991 0.848633 7.77812 0.848633ZM7.77812 11.5153C5.81762 11.5153 4.22258 9.92026 4.22258 7.95976C4.22258 5.99926 5.81762 4.40422 7.77812 4.40422C9.73862 4.40422 11.3337 5.99926 11.3337 7.95976C11.3337 9.92026 9.73862 11.5153 7.77812 11.5153Z" fill="white"/>
</svg>
