<svg width="50" height="51" viewBox="0 0 50 51" fill="none" xmlns="http://www.w3.org/2000/svg">
<path d="M49.0002 25.5156C49.0002 38.7491 38.2337 49.5156 25.0002 49.5156C11.7667 49.5156 1.00024 38.7491 1.00024 25.5156C1.00024 24.6871 1.67124 24.0156 2.50024 24.0156C3.32924 24.0156 4.00024 24.6871 4.00024 25.5156C4.00024 37.0951 13.4207 46.5156 25.0002 46.5156C36.5797 46.5156 46.0002 37.0951 46.0002 25.5156C46.0002 13.9361 36.5797 4.51562 25.0002 4.51562C19.4197 4.51562 14.2372 6.68512 10.3392 10.5156H16.0002C16.8292 10.5156 17.5002 11.1871 17.5002 12.0156C17.5002 12.8441 16.8292 13.5156 16.0002 13.5156H7.00024C6.17124 13.5156 5.50024 12.8441 5.50024 12.0156V3.01562C5.50024 2.18712 6.17124 1.51562 7.00024 1.51562C7.82924 1.51562 8.50024 2.18712 8.50024 3.01562V8.13212C12.9257 3.90812 18.7407 1.51562 25.0002 1.51562C38.2337 1.51562 49.0002 12.2821 49.0002 25.5156ZM26.5002 24.0156H23.5002C22.6727 24.0156 22.0002 23.3426 22.0002 22.5156C22.0002 21.6886 22.6727 21.0156 23.5002 21.0156H29.5002C30.3292 21.0156 31.0002 20.3441 31.0002 19.5156C31.0002 18.6871 30.3292 18.0156 29.5002 18.0156H26.5002V16.5156C26.5002 15.6871 25.8292 15.0156 25.0002 15.0156C24.1712 15.0156 23.5002 15.6871 23.5002 16.5156V18.0156C21.0187 18.0156 19.0002 20.0341 19.0002 22.5156C19.0002 24.9971 21.0187 27.0156 23.5002 27.0156H26.5002C27.3277 27.0156 28.0002 27.6886 28.0002 28.5156C28.0002 29.3426 27.3277 30.0156 26.5002 30.0156H20.5002C19.6712 30.0156 19.0002 30.6871 19.0002 31.5156C19.0002 32.3441 19.6712 33.0156 20.5002 33.0156H23.5002V34.5156C23.5002 35.3441 24.1712 36.0156 25.0002 36.0156C25.8292 36.0156 26.5002 35.3441 26.5002 34.5156V33.0156C28.9817 33.0156 31.0002 30.9971 31.0002 28.5156C31.0002 26.0341 28.9817 24.0156 26.5002 24.0156Z" fill="white"/>
</svg>
