<svg width="49" height="57" viewBox="0 0 49 57" fill="none" xmlns="http://www.w3.org/2000/svg">
<path d="M10.4487 7.06274H18.3598" stroke="#304DC0" stroke-width="2.3" stroke-miterlimit="10" stroke-linecap="round" stroke-linejoin="round"/>
<path d="M10.4487 11.8737H18.3598" stroke="#304DC0" stroke-width="2.3" stroke-miterlimit="10" stroke-linecap="round" stroke-linejoin="round"/>
<path d="M34.3228 2.24292V8.30318C34.3228 10.2702 35.9173 11.8647 37.8843 11.8647H43.9446" stroke="#304DC0" stroke-width="2.3" stroke-miterlimit="10" stroke-linecap="round" stroke-linejoin="round"/>
<path d="M18.0063 28.4488L17.27 26.7827C16.8233 25.7716 15.8221 25.1193 14.7166 25.1193H4.79152C3.24982 25.1193 2 26.3691 2 27.9108V52.2086C2 53.7503 3.24982 55 4.79152 55H44.8947C46.4363 55 47.6862 53.7503 47.6862 52.2086V32.9036C47.6862 31.3619 46.4363 30.1122 44.8947 30.1122H20.5597C19.4542 30.1122 18.453 29.4599 18.0063 28.4488Z" stroke="#304DC0" stroke-width="2.3" stroke-miterlimit="10" stroke-linecap="round" stroke-linejoin="round"/>
<path d="M44.1874 26.3718V12.9823C44.1874 12.2666 43.9031 11.5804 43.3971 11.0745L35.1127 2.79004C34.6068 2.28414 33.9205 1.99984 33.205 1.99984H9.06011C7.09313 1.99984 5.49854 3.59443 5.49854 5.56141V21.3792" stroke="#304DC0" stroke-width="2.3" stroke-miterlimit="10" stroke-linecap="round" stroke-linejoin="round"/>
<path d="M5.49865 18.2109H4.79152C3.24982 18.2109 2 19.4607 2 21.0024V27.9106" stroke="#304DC0" stroke-width="2.3" stroke-miterlimit="10" stroke-linecap="round" stroke-linejoin="round"/>
<path d="M47.6862 32.9036V21.0024C47.6862 19.4607 46.4363 18.2109 44.8946 18.2109H44.1875" stroke="#304DC0" stroke-width="2.3" stroke-miterlimit="10" stroke-linecap="round" stroke-linejoin="round"/>
</svg>
