<svg width="57" height="65" viewBox="0 0 57 65" fill="none" xmlns="http://www.w3.org/2000/svg">
<path d="M50.1892 22.4869C50.1892 10.5085 40.4789 0.798157 28.5005 0.798157C16.5221 0.798157 6.81176 10.5085 6.81176 22.4869C3.71509 22.8725 0.787109 24.8968 0.787109 29.596V40.9223C0.787109 46.224 4.49829 48.1519 8.01669 48.1519H11.511C12.1764 48.1519 12.7159 47.6124 12.7159 46.947V23.6195C12.7159 22.9541 12.1764 22.4146 11.511 22.4146H9.22162C9.22162 11.7672 17.8531 3.13572 28.5005 3.13572C39.1479 3.13572 47.7794 11.7672 47.7794 22.4146H45.49C44.8246 22.4146 44.2851 22.9541 44.2851 23.6195V46.9109C44.2851 47.5763 44.8246 48.1158 45.49 48.1158H47.7794C47.442 56.3937 43.4657 58.3336 35.5252 58.683V57.8757C35.5252 56.5447 34.4464 55.4659 33.1154 55.4659H25.5364C24.2054 55.4659 23.1265 56.5447 23.1265 57.8757V61.7917C23.1265 63.1227 24.2054 64.2016 25.5364 64.2016H33.1395C34.4705 64.2016 35.5493 63.1227 35.5493 61.7917V61.0929C43.1886 60.7435 49.7916 59.165 50.1892 48.0435C53.2859 47.6579 56.2139 45.6336 56.2139 40.9344V29.608C56.2139 24.8847 53.298 22.8725 50.1892 22.4869ZM10.3061 24.7401V45.7059H7.95644C6.17315 45.7059 3.13672 45.0794 3.13672 40.8862V29.5599C3.13672 25.4028 6.137 24.7401 7.95644 24.7401H10.3061ZM33.1395 59.9723V61.8038H25.5364V57.8878H33.1395V59.9723ZM53.804 40.9223C53.804 45.0794 50.8038 45.7421 48.9843 45.7421H46.6949V24.8245H49.0446C50.8279 24.8245 53.8643 25.451 53.8643 29.6442L53.804 40.9223Z" fill="#304DC0"/>
</svg>
