<svg width="78" height="80" viewBox="0 0 78 80" fill="none" xmlns="http://www.w3.org/2000/svg">
<path d="M72.5397 36.2144L70.5198 28.0313C71.072 27.9125 71.4864 27.4163 71.4864 26.8217V25.5024C71.4864 22.6377 69.1852 20.3072 66.357 20.3072H57.1566V17.5857C57.1566 16.176 56.0244 15.0293 54.6326 15.0293H7.7348C6.34298 15.0293 5.21077 16.176 5.21077 17.5857V40.0158C5.21077 40.6989 5.75753 41.2528 6.43211 41.2528C7.10653 41.2528 7.65345 40.6991 7.65345 40.0158V17.5857C7.65345 17.5402 7.68986 17.5033 7.7348 17.5033H54.6325C54.6774 17.5033 54.7138 17.5402 54.7138 17.5857V40.0161C54.7138 40.6992 55.2606 41.2531 55.9351 41.2531C56.6096 41.2531 57.1565 40.6994 57.1565 40.0161V38.6139H71.5635L71.5667 38.6142L71.57 38.614C73.3428 38.6153 74.8482 39.7938 75.3652 41.4178H71.5676C70.8932 41.4178 70.3463 41.9715 70.3463 42.6548V45.2935C70.3463 47.4307 72.0629 49.1693 74.173 49.1693H75.5572V54.6118H72.3637C71.3147 51.544 68.4352 49.3341 65.054 49.3341C61.6727 49.3341 58.7931 51.544 57.7442 54.6118H57.1562V45.2934C57.1562 44.6103 56.6094 44.0564 55.9348 44.0564C55.2604 44.0564 54.7135 44.6102 54.7135 45.2934V54.6115H29.3745C28.3254 51.5437 25.446 49.3338 22.0647 49.3338C18.6834 49.3338 15.8038 51.5437 14.7549 54.6115H7.7348C7.68986 54.6115 7.65345 54.5747 7.65345 54.5291V51.8078H12.9457C13.6201 51.8078 14.1671 51.254 14.1671 50.5708C14.1671 49.8876 13.6203 49.3338 12.9457 49.3338H1.22134C0.546914 49.3338 0 49.8876 0 50.5708C0 51.254 0.546762 51.8078 1.22134 51.8078H5.21092V54.5291C5.21092 55.9388 6.34314 57.0855 7.73495 57.0855H14.332C14.3317 57.113 14.3299 57.1403 14.3299 57.1679C14.3299 61.4876 17.7998 65.0019 22.0647 65.0019C26.3296 65.0019 29.7995 61.4876 29.7995 57.1679C29.7995 57.1402 29.7977 57.113 29.7974 57.0855H57.3213C57.321 57.113 57.3192 57.1403 57.3192 57.1679C57.3192 61.4876 60.7891 65.0019 65.054 65.0019C69.3188 65.0019 72.7888 61.4876 72.7888 57.1679C72.7888 57.1402 72.7869 57.113 72.7866 57.0855H76.7785C77.4529 57.0855 77.9998 56.5318 77.9998 55.8485V42.6545C78 39.3969 75.6269 36.6904 72.5397 36.2144ZM57.1566 22.781H66.357C67.8385 22.781 69.0439 24.0018 69.0439 25.5024V25.5847H57.1566V22.781ZM57.1566 36.14V28.0586H68.0088L70.0036 36.14H57.1566ZM22.0647 62.5284C19.1466 62.5284 16.7724 60.124 16.7724 57.1682C16.7724 54.2125 19.1466 51.8081 22.0647 51.8081C24.9829 51.8081 27.357 54.2125 27.357 57.1682C27.357 60.124 24.9829 62.5284 22.0647 62.5284ZM65.0543 62.5284C62.1361 62.5284 59.762 60.124 59.762 57.1682C59.762 54.2125 62.1361 51.8081 65.0543 51.8081C67.9724 51.8081 70.3466 54.2125 70.3466 57.1682C70.3466 60.124 67.9724 62.5284 65.0543 62.5284ZM75.5575 46.6953H74.1733C73.41 46.6953 72.7891 46.0664 72.7891 45.2934V43.8915H75.5573L75.5575 46.6953Z" fill="#304DC0"/>
<path d="M22.0646 54.6113C20.6727 54.6113 19.5405 55.7581 19.5405 57.1677C19.5405 58.5774 20.6727 59.7241 22.0646 59.7241C23.4564 59.7241 24.5886 58.5774 24.5886 57.1677C24.5886 55.7581 23.4564 54.6113 22.0646 54.6113Z" fill="#304DC0"/>
<path d="M65.0543 54.6113C63.6625 54.6113 62.5303 55.7581 62.5303 57.1677C62.5303 58.5774 63.6625 59.7241 65.0543 59.7241C66.4461 59.7241 67.5783 58.5774 67.5783 57.1677C67.5783 55.7581 66.4461 54.6113 65.0543 54.6113Z" fill="#304DC0"/>
<path d="M50.7244 49.334H32.4865C31.8121 49.334 31.2651 49.8878 31.2651 50.571C31.2651 51.2542 31.8119 51.808 32.4865 51.808H50.7244C51.3989 51.808 51.9458 51.2542 51.9458 50.571C51.9458 49.8878 51.399 49.334 50.7244 49.334Z" fill="#304DC0"/>
<path d="M19.4594 44.0566H3.82681C3.15238 44.0566 2.60547 44.6104 2.60547 45.2936C2.60547 45.9769 3.15223 46.5306 3.82681 46.5306H19.4594C20.1338 46.5306 20.6807 45.9769 20.6807 45.2936C20.6807 44.6104 20.1338 44.0566 19.4594 44.0566Z" fill="#304DC0"/>
<path d="M42.4689 27.2665C41.992 26.7835 41.2186 26.7835 40.7417 27.2666L29.8808 38.2666L24.2309 32.5442C23.7539 32.0611 22.9806 32.0611 22.5037 32.5442C22.0267 33.0273 22.0267 33.8104 22.5037 34.2935L29.0174 40.8906C29.2558 41.1322 29.5684 41.2529 29.8808 41.2529C30.1933 41.2529 30.5061 41.1322 30.7443 40.8906L42.4687 29.0159C42.9457 28.5326 42.9457 27.7496 42.4689 27.2665Z" fill="#304DC0"/>
</svg>
