<svg width="21" height="18" viewBox="0 0 21 18" fill="none" xmlns="http://www.w3.org/2000/svg">
<path d="M20.3335 2.78235C19.5897 3.11029 18.7972 3.32766 17.971 3.43321C18.821 2.92308 19.4697 2.12144 19.7747 1.15521C18.9822 1.63016 18.1072 1.96564 17.1747 2.15286C16.4222 1.34745 15.3497 0.848633 14.1797 0.848633C11.9097 0.848633 10.0822 2.70068 10.0822 4.97113C10.0822 5.29782 10.1097 5.61194 10.1772 5.91098C6.7685 5.74387 3.75225 4.10165 1.726 1.60001C1.37225 2.21694 1.16475 2.92308 1.16475 3.68324C1.16475 5.1106 1.896 6.37587 2.986 7.1084C2.32725 7.09584 1.681 6.90359 1.1335 6.60078C1.1335 6.61335 1.1335 6.62968 1.1335 6.64602C1.1335 8.64884 2.55475 10.3124 4.4185 10.6956C4.08475 10.7874 3.721 10.8313 3.3435 10.8313C3.081 10.8313 2.816 10.8163 2.56725 10.761C3.0985 12.3931 4.606 13.5931 6.3985 13.632C5.0035 14.7289 3.23225 15.3898 1.31475 15.3898C0.978496 15.3898 0.655996 15.3748 0.333496 15.3333C2.14975 16.5106 4.30225 17.1828 6.6235 17.1828C14.1685 17.1828 18.2935 10.9004 18.2935 5.45488C18.2935 5.27269 18.2872 5.09678 18.2785 4.92213C19.0922 4.34164 19.776 3.61665 20.3335 2.78235Z" fill="white"/>
</svg>
