<svg width="52" height="53" viewBox="0 0 52 53" fill="none" xmlns="http://www.w3.org/2000/svg">
<g clip-path="url(#clip0_1803_126)">
<path d="M47.0975 11.1895C46.8669 18.851 44.702 26.4077 40.8401 33.0296C36.978 39.6586 31.4679 45.2548 24.9032 49.2321L24.8963 49.2364L24.8961 49.2361C24.885 49.2416 24.8751 49.2473 24.8627 49.2543C24.8512 49.2609 24.8373 49.2688 24.8214 49.2769C24.4164 49.5005 23.9544 49.6156 23.4995 49.6156C23.0389 49.6156 22.5833 49.5079 22.1771 49.2766L22.1765 49.2763C22.1515 49.2638 22.1199 49.2481 22.0941 49.2311C15.5372 45.2538 10.0207 39.6511 6.15896 33.0296C2.29694 26.4076 0.132014 18.8507 -0.0984505 11.189C-0.148779 9.57096 1.03125 8.16392 2.64728 7.8984L2.65534 7.89708H2.6617C5.41321 7.41074 7.60665 6.84851 9.56265 6.12776L9.56275 6.12772C11.6621 5.35676 13.6292 4.44696 15.5826 3.34261C17.2436 2.39824 18.8067 1.33613 20.2165 0.177306L20.2171 0.176855C20.474 -0.0312515 20.738 -0.253398 20.9883 -0.468776L20.9892 -0.469495C21.0555 -0.525285 21.12 -0.579325 21.1845 -0.633274L21.1852 -0.63385C21.2401 -0.679802 21.2949 -0.725694 21.3508 -0.772646V-0.773348L21.3859 -0.803292C22.6079 -1.84474 24.426 -1.84474 25.648 -0.803292L25.654 -0.79814L25.6538 -0.797917L25.6578 -0.793965C28.612 1.69199 31.5997 3.60065 34.7878 5.03723C37.7551 6.37035 40.9731 7.33574 44.3725 7.89838C45.982 8.15693 47.162 9.57137 47.0975 11.1895ZM47.0975 11.1895C47.0975 11.1897 47.0975 11.1898 47.0975 11.19L46.9975 11.186L47.0975 11.189C47.0975 11.1892 47.0975 11.1893 47.0975 11.1895ZM2.48469 11.1197L2.48471 11.1203C2.92968 25.9309 10.7651 39.3587 23.4468 47.0419C23.4847 47.0644 23.5422 47.0644 23.5801 47.0419C36.2618 39.3587 44.0973 25.9309 44.5561 11.1202L44.5562 11.1198C44.5681 10.7792 44.3257 10.4947 43.979 10.4365H43.9732H43.965L43.957 10.4352C40.3461 9.84205 36.9091 8.81611 33.7439 7.38496C30.3341 5.84904 27.1487 3.81775 24.0134 1.17349L24.007 1.16803L24.0072 1.16778L24.0003 1.16082L23.9956 1.15612C23.7344 0.927536 23.3343 0.927536 23.0732 1.15612L23.0685 1.16083L23.0615 1.16779L23.0551 1.17421L23.0548 1.17389C22.9928 1.22551 22.9307 1.27894 22.8679 1.33299L22.8677 1.33317C22.8051 1.38698 22.7419 1.44141 22.6785 1.49418L22.6145 1.41733M2.48469 11.1197L24.064 1.08312C23.7643 0.818536 23.3044 0.818536 23.0048 1.08312L22.9978 1.09008L22.9908 1.09704C22.9281 1.14926 22.8654 1.20321 22.8027 1.25717C22.74 1.31113 22.6772 1.3651 22.6145 1.41733M2.48469 11.1197C2.47287 10.7949 2.72701 10.4952 3.08258 10.4365M2.48469 11.1197L10.4335 8.44965C12.6564 7.62805 14.747 6.6672 16.8167 5.49747M22.6145 1.41733L22.6789 1.49385C22.643 1.52408 22.6069 1.55445 22.5707 1.58493C22.3404 1.77885 22.105 1.97706 21.8696 2.17004M22.6145 1.41733C22.5785 1.4476 22.5424 1.47799 22.5062 1.50848C22.2759 1.70243 22.041 1.90017 21.8062 2.09271M21.8696 2.17004L21.8062 2.09271M21.8696 2.17004C21.8696 2.17003 21.8696 2.17001 21.8696 2.16999L21.8062 2.09271M21.8696 2.17004C20.3388 3.4271 18.6616 4.57221 16.8659 5.58453M21.8062 2.09271C20.28 3.34599 18.6076 4.48788 16.8167 5.49747M16.8659 5.58453L16.8167 5.49747M16.8659 5.58453C16.8658 5.58454 16.8658 5.58456 16.8658 5.58458L16.8167 5.49747M16.8659 5.58453C14.7914 6.757 12.6959 7.72007 10.4681 8.54345L10.468 8.54348C8.36346 9.31893 6.02296 9.91904 3.12002 10.435L3.11134 10.4365H3.10252H3.10248H3.10244H3.1024H3.10236H3.10232H3.10228H3.10224H3.1022H3.10216H3.10212H3.10208H3.10204H3.102H3.10196H3.10192H3.10188H3.10185H3.10181H3.10177H3.10173H3.10169H3.10166H3.10162H3.10158H3.10155H3.10151H3.10147H3.10143H3.1014H3.10136H3.10133H3.10129H3.10125H3.10122H3.10118H3.10115H3.10111H3.10108H3.10104H3.10101H3.10097H3.10094H3.1009H3.10087H3.10083H3.1008H3.10076H3.10073H3.1007H3.10066H3.10063H3.1006H3.10056H3.10053H3.1005H3.10046H3.10043H3.1004H3.10037H3.10033H3.1003H3.10027H3.10024H3.1002H3.10017H3.10014H3.10011H3.10008H3.10005H3.10001H3.09998H3.09995H3.09992H3.09989H3.09986H3.09983H3.0998H3.09977H3.09974H3.09971H3.09968H3.09965H3.09962H3.09959H3.09956H3.09953H3.0995H3.09947H3.09944H3.09941H3.09938H3.09936H3.09933H3.0993H3.09927H3.09924H3.09921H3.09918H3.09916H3.09913H3.0991H3.09907H3.09904H3.09902H3.09899H3.09896H3.09893H3.09891H3.09888H3.09885H3.09883H3.0988H3.09877H3.09875H3.09872H3.09869H3.09867H3.09864H3.09861H3.09859H3.09856H3.09853H3.09851H3.09848H3.09846H3.09843H3.09841H3.09838H3.09835H3.09833H3.0983H3.09828H3.09825H3.09823H3.0982H3.09818H3.09815H3.09813H3.0981H3.09808H3.09805H3.09803H3.09801H3.09798H3.09796H3.09793H3.09791H3.09788H3.09786H3.09784H3.09781H3.09779H3.09777H3.09774H3.09772H3.09769H3.09767H3.09765H3.09762H3.0976H3.09758H3.09755H3.09753H3.09751H3.09749H3.09746H3.09744H3.09742H3.09739H3.09737H3.09735H3.09733H3.0973H3.09728H3.09726H3.09724H3.09721H3.09719H3.09717H3.09715H3.09712H3.0971H3.09708H3.09706H3.09704H3.09701H3.09699H3.09697H3.09695H3.09693H3.0969H3.09688H3.09686H3.09684H3.09682H3.0968H3.09677H3.09675H3.09673H3.09671H3.09669H3.09667H3.09665H3.09663H3.0966H3.09658H3.09656H3.09654H3.09652H3.0965H3.09648H3.09646H3.09644H3.09641H3.09639H3.09637H3.09635H3.09633H3.09631H3.09629H3.09627H3.09625H3.09623H3.09621H3.09618H3.09616H3.09614H3.09612H3.0961H3.09608H3.09606H3.09604H3.09602H3.096H3.09598H3.09596H3.09594H3.09592H3.0959H3.09588H3.09586H3.09583H3.09581H3.09579H3.09577H3.09575H3.09573H3.09571H3.09569H3.09567H3.09565H3.09563H3.09561H3.09559H3.09557H3.09555H3.09553H3.09551H3.09549H3.09547H3.09545H3.09543H3.09541H3.09539H3.09537H3.09534H3.09532H3.0953H3.09528H3.09526H3.09524H3.09522H3.0952H3.09518H3.09516H3.09514H3.09512H3.0951H3.09508H3.09506H3.09504H3.09502H3.095H3.09497H3.09495H3.09493H3.09491H3.09489H3.09487H3.09485H3.09483H3.09481H3.09479H3.09477H3.09475H3.09473H3.0947H3.09468H3.09466H3.09464H3.09462H3.0946H3.09458H3.09456H3.09454H3.09452H3.09449H3.09447H3.09445H3.09443H3.09441H3.09439H3.09437H3.09434H3.09432H3.0943H3.09428H3.09426H3.09424H3.09421H3.09419H3.09417H3.09415H3.09413H3.09411H3.09408H3.09406H3.09404H3.09402H3.094H3.09397H3.09395H3.09393H3.09391H3.09388H3.09386H3.09384H3.09382H3.09379H3.09377H3.09375H3.09373H3.0937H3.09368H3.09366H3.09364H3.09361H3.09359H3.09357H3.09354H3.09352H3.0935H3.09347H3.09345H3.09343H3.0934H3.09338H3.09336H3.09333H3.09331H3.09328H3.09326H3.09324H3.09321H3.09319H3.09316H3.09314H3.09312H3.09309H3.09307H3.09304H3.09302H3.09299H3.09297H3.09294H3.09292H3.09289H3.09287H3.09284H3.09282H3.09279H3.09277H3.09274H3.09272H3.09269H3.09267H3.09264H3.09261H3.09259H3.09256H3.09254H3.09251H3.09248H3.09246H3.09243H3.09241H3.09238H3.09235H3.09233H3.0923H3.09227H3.09224H3.09222H3.09219H3.09216H3.09214H3.09211H3.09208H3.09205H3.09203H3.092H3.09197H3.09194H3.09191H3.09189H3.09186H3.09183H3.0918H3.09177H3.09174H3.09171H3.09168H3.09166H3.09163H3.0916H3.09157H3.09154H3.09151H3.09148H3.09145H3.09142H3.09139H3.09136H3.09133H3.0913H3.09127H3.09124H3.09121H3.09118H3.09115H3.09111H3.09108H3.09105H3.09102H3.09099H3.09096H3.09093H3.09089H3.09086H3.09083H3.0908H3.09077H3.09073H3.0907H3.09067H3.09063H3.0906H3.09057H3.09054H3.0905H3.09047H3.09044H3.0904H3.09037H3.09033H3.0903H3.09027H3.09023H3.0902H3.09016H3.09013H3.09009H3.09006H3.09002H3.08999H3.08995H3.08992H3.08988H3.08984H3.08981H3.08977H3.08974H3.0897H3.08966H3.08963H3.08959H3.08955H3.08952H3.08948H3.08944H3.0894H3.08937H3.08933H3.08929H3.08925H3.08921H3.08917H3.08914H3.0891H3.08906H3.08902H3.08898H3.08894H3.0889H3.08886H3.08882H3.08878H3.08874H3.0887H3.08866H3.08862H3.08858H3.08854H3.0885H3.08846H3.08842H3.08838H3.08834H3.0883H3.08826H3.08822H3.08818H3.08814H3.0881H3.08806H3.08802H3.08799H3.08795H3.08791H3.08787H3.08783H3.08779H3.08776H3.08772H3.08768H3.08764H3.08761H3.08757H3.08753H3.0875H3.08746H3.08742H3.08739H3.08735H3.08732H3.08728H3.08724H3.08721H3.08717H3.08714H3.0871H3.08707H3.08703H3.087H3.08696H3.08693H3.08689H3.08686H3.08683H3.08679H3.08676H3.08672H3.08669H3.08666H3.08662H3.08659H3.08656H3.08653H3.08649H3.08646H3.08643H3.08639H3.08636H3.08633H3.0863H3.08627H3.08623H3.0862H3.08617H3.08614H3.08611H3.08608H3.08605H3.08601H3.08598H3.08595H3.08592H3.08589H3.08586H3.08583H3.0858H3.08577H3.08574H3.08571H3.08568H3.08565H3.08562H3.08559H3.08556H3.08553H3.0855H3.08548H3.08545H3.08542H3.08539H3.08536H3.08533H3.0853H3.08527H3.08525H3.08522H3.08519H3.08516H3.08513H3.08511H3.08508H3.08505H3.08502H3.085H3.08497H3.08494H3.08492H3.08489H3.08486H3.08483H3.08481H3.08478H3.08475H3.08473H3.0847H3.08468H3.08465H3.08462H3.0846H3.08457H3.08455H3.08452H3.08449H3.08447H3.08444H3.08442H3.08439H3.08437H3.08434H3.08432H3.08429H3.08427H3.08424H3.08422H3.08419H3.08417H3.08414H3.08412H3.08409H3.08407H3.08404H3.08402H3.084H3.08397H3.08395H3.08392H3.0839H3.08388H3.08385H3.08383H3.0838H3.08378H3.08376H3.08373H3.08371H3.08369H3.08366H3.08364H3.08362H3.08359H3.08357H3.08355H3.08352H3.0835H3.08348H3.08346H3.08343H3.08341H3.08339H3.08337H3.08334H3.08332H3.0833H3.08328H3.08325H3.08323H3.08321H3.08319H3.08316H3.08314H3.08312H3.0831H3.08308H3.08305H3.08303H3.08301H3.08299H3.08297H3.08295H3.08292H3.0829H3.08288H3.08286H3.08284H3.08282H3.08279H3.08277H3.08275H3.08273H3.08271H3.08269H3.08267H3.08265H3.08262H3.0826H3.08258M3.08258 10.4365C3.08458 10.4362 3.08658 10.4359 3.08858 10.4356C3.08904 10.4355 3.0895 10.4354 3.08996 10.4354L3.08858 10.4264L3.07464 10.3365V10.4365H3.07468H3.07472H3.07476H3.07481H3.07485H3.07489H3.07492H3.07496H3.075H3.07504H3.07508H3.07512H3.07516H3.0752H3.07524H3.07528H3.07531H3.07535H3.07539H3.07543H3.07547H3.0755H3.07554H3.07558H3.07562H3.07565H3.07569H3.07573H3.07576H3.0758H3.07584H3.07587H3.07591H3.07594H3.07598H3.07601H3.07605H3.07609H3.07612H3.07616H3.07619H3.07622H3.07626H3.07629H3.07633H3.07636H3.0764H3.07643H3.07646H3.0765H3.07653H3.07657H3.0766H3.07663H3.07666H3.0767H3.07673H3.07676H3.0768H3.07683H3.07686H3.07689H3.07692H3.07696H3.07699H3.07702H3.07705H3.07708H3.07711H3.07715H3.07718H3.07721H3.07724H3.07727H3.0773H3.07733H3.07736H3.07739H3.07742H3.07745H3.07748H3.07751H3.07754H3.07757H3.0776H3.07763H3.07766H3.07769H3.07772H3.07775H3.07778H3.07781H3.07783H3.07786H3.07789H3.07792H3.07795H3.07798H3.078H3.07803H3.07806H3.07809H3.07812H3.07814H3.07817H3.0782H3.07823H3.07825H3.07828H3.07831H3.07833H3.07836H3.07839H3.07842H3.07844H3.07847H3.07849H3.07852H3.07855H3.07857H3.0786H3.07863H3.07865H3.07868H3.0787H3.07873H3.07875H3.07878H3.07881H3.07883H3.07886H3.07888H3.07891H3.07893H3.07896H3.07898H3.07901H3.07903H3.07906H3.07908H3.07911H3.07913H3.07915H3.07918H3.0792H3.07923H3.07925H3.07928H3.0793H3.07932H3.07935H3.07937H3.0794H3.07942H3.07944H3.07947H3.07949H3.07951H3.07954H3.07956H3.07958H3.07961H3.07963H3.07965H3.07968H3.0797H3.07972H3.07974H3.07977H3.07979H3.07981H3.07983H3.07986H3.07988H3.0799H3.07993H3.07995H3.07997H3.07999H3.08001H3.08004H3.08006H3.08008H3.0801H3.08012H3.08015H3.08017H3.08019H3.08021H3.08023H3.08026H3.08028H3.0803H3.08032H3.08034H3.08036H3.08039H3.08041H3.08043H3.08045H3.08047H3.08049H3.08051H3.08054H3.08056H3.08058H3.0806H3.08062H3.08064H3.08066H3.08068H3.0807H3.08073H3.08075H3.08077H3.08079H3.08081H3.08083H3.08085H3.08087H3.08089H3.08091H3.08093H3.08095H3.08098H3.081H3.08102H3.08104H3.08106H3.08108H3.0811H3.08112H3.08114H3.08116H3.08118H3.0812H3.08122H3.08124H3.08126H3.08128H3.0813H3.08133H3.08135H3.08137H3.08139H3.08141H3.08143H3.08145H3.08147H3.08149H3.08151H3.08153H3.08155H3.08157H3.08159H3.08161H3.08163H3.08165H3.08167H3.08169H3.08171H3.08173H3.08175H3.08177H3.0818H3.08182H3.08184H3.08186H3.08188H3.0819H3.08192H3.08194H3.08196H3.08198H3.082H3.08202H3.08204H3.08206H3.08208H3.0821H3.08212H3.08214H3.08216H3.08219H3.08221H3.08223H3.08225H3.08227H3.08229H3.08231H3.08233H3.08235H3.08237H3.08239H3.08241H3.08243H3.08246H3.08248H3.0825H3.08252H3.08254H3.08256H3.08258Z" fill="white" stroke="white" stroke-width="0.2"/>
<path d="M37.2845 13.5207L37.2849 13.5206L37.3239 13.6127C37.9311 13.3555 38.6372 13.6266 38.8984 14.2244C39.1667 14.8222 38.8843 15.5243 38.2771 15.7815C30.0654 19.2989 23.5765 25.7012 20.0108 33.7996M37.2845 13.5207L19.855 34.1976L19.7848 34.1263L19.799 34.1124M37.2845 13.5207C32.9165 15.3886 29.0014 18.0233 25.6387 21.334L25.6386 21.3341C23.2 23.7417 21.1275 26.4364 19.4475 29.3724M37.2845 13.5207L19.4475 29.3724M20.0108 33.7996C20.0073 33.8031 20.0055 33.8066 20.0037 33.8101C20.002 33.8135 20.0002 33.817 19.9967 33.8205C19.9896 33.8274 19.9825 33.8413 19.9755 33.8552C19.9684 33.883 19.9543 33.9039 19.9402 33.9248M20.0108 33.7996L20.1023 33.8399L20.0946 33.8575L20.0809 33.8709L20.0108 33.7996ZM19.9402 33.9248C19.9367 33.9282 19.9349 33.9317 19.9331 33.9352C19.9314 33.9387 19.9296 33.9421 19.9261 33.9456C19.9049 33.9804 19.8837 34.0082 19.8625 34.036C19.8519 34.0499 19.8413 34.062 19.8307 34.0742C19.8201 34.0864 19.8096 34.0985 19.799 34.1124M19.9402 33.9248L20.023 33.9808L20.0174 33.989L20.0103 33.996L19.9402 33.9248ZM19.799 34.1124L19.8785 34.173L19.8742 34.1787L19.8691 34.1837L19.799 34.1124ZM19.4475 29.3724C19.0318 28.1892 18.452 27.0639 17.7202 26.026C16.2194 23.8903 14.1357 22.217 11.7109 21.1949C11.054 20.9168 10.2893 21.2169 10.0058 21.8657C9.72178 22.5156 10.0295 23.2695 10.6868 23.548L10.687 23.548C14.6901 25.2361 17.4052 29.0942 17.609 33.378V33.378V33.378V33.3781V33.3781V33.3782V33.3782V33.3782V33.3783V33.3783V33.3784V33.3784V33.3784V33.3785V33.3785V33.3786V33.3786V33.3786V33.3787V33.3787V33.3788V33.3788V33.3788V33.3789V33.3789V33.379V33.379V33.3791V33.3791V33.3791V33.3792V33.3792V33.3793V33.3793V33.3793V33.3794V33.3794V33.3795V33.3795V33.3795V33.3796V33.3796V33.3797V33.3797V33.3797V33.3798V33.3798V33.3799V33.3799V33.3799V33.38V33.38V33.3801V33.3801V33.3801V33.3802V33.3802V33.3803V33.3803V33.3804V33.3804V33.3804V33.3805V33.3805V33.3806V33.3806V33.3806V33.3807V33.3807V33.3808V33.3808V33.3808V33.3809V33.3809V33.381V33.381V33.381V33.3811V33.3811V33.3812V33.3812V33.3813V33.3813V33.3813V33.3814V33.3814V33.3815V33.3815V33.3815V33.3816V33.3816V33.3817V33.3817V33.3817V33.3818V33.3818V33.3819V33.3819V33.3819V33.382V33.382V33.3821V33.3821V33.3821V33.3822V33.3822V33.3823V33.3823V33.3823V33.3824V33.3824V33.3825V33.3825V33.3826V33.3826V33.3826V33.3827V33.3827V33.3828V33.3828V33.3828V33.3829V33.3829V33.383V33.383V33.383V33.3831V33.3831V33.3832V33.3832V33.3832V33.3833V33.3833V33.3834V33.3834V33.3834V33.3835V33.3835V33.3836V33.3836V33.3837V33.3837V33.3837V33.3838V33.3838V33.3839V33.3839V33.3839V33.384V33.384V33.3841V33.3841V33.3841V33.3842V33.3842V33.3843V33.3843V33.3843V33.3844V33.3844V33.3845V33.3845V33.3845V33.3846V33.3846V33.3847V33.3847V33.3848V33.3848V33.3848V33.3849V33.3849V33.385V33.385V33.385V33.3851V33.3851V33.3852V33.3852V33.3852V33.3853V33.3853V33.3854V33.3854V33.3854V33.3855V33.3855V33.3856V33.3856V33.3856V33.3857V33.3857V33.3858V33.3858V33.3859V33.3859V33.3859V33.386V33.386V33.3861V33.3861V33.3861V33.3862V33.3862V33.3863V33.3863V33.3863V33.3864V33.3864V33.3865V33.3865V33.3865V33.3866V33.3866V33.3867V33.3867V33.3867V33.3868V33.3868V33.3869V33.3869V33.387V33.387V33.387V33.3871V33.3871V33.3872V33.3872V33.3872V33.3873V33.3873V33.3874V33.3874V33.3874V33.3875V33.3875V33.3876V33.3876V33.3876V33.3877V33.3877V33.3878V33.3878V33.3878V33.3879V33.3879V33.388V33.388V33.3881V33.3881V33.3881V33.3882V33.3882V33.3883V33.3883V33.3883V33.3884V33.3884V33.3885V33.3885V33.3885V33.3886V33.3886V33.3887V33.3887V33.3887V33.3888V33.3888V33.3889V33.3889V33.3889V33.389V33.389V33.3891V33.3891V33.3892V33.3892V33.3892V33.3893V33.3893V33.3894V33.3894V33.3894V33.3895V33.3895V33.3896V33.3896V33.3896V33.3897V33.3897V33.3898V33.3898V33.3898V33.3899V33.3899V33.39V33.39V33.39V33.3901V33.3901V33.3902V33.3902V33.3903V33.3903V33.3903V33.3904V33.3904V33.3905V33.3905V33.3905V33.3906V33.3906V33.3907V33.3907V33.3907V33.3908V33.3908V33.3909V33.3909V33.3909V33.391V33.391V33.3911V33.3911V33.3911V33.3912V33.3912V33.3913V33.3913V33.3913V33.3914V33.3914V33.3915V33.3915V33.3916V33.3916V33.3916V33.3917V33.3917V33.3918V33.3918V33.3918V33.3919V33.3919V33.392V33.392V33.392V33.3921V33.3921V33.3922V33.3922V33.3922V33.3923V33.3923V33.3924V33.3924V33.3925V33.3925V33.3925V33.3926V33.3926V33.3927V33.3927V33.3927V33.3928V33.3928V33.3929V33.3929V33.3929V33.393V33.393V33.3931V33.3931V33.3931V33.3932V33.3932V33.3933V33.3933V33.3933V33.3934V33.3934V33.3935V33.3935V33.3936V33.3936V33.3936V33.3937V33.3937V33.3938V33.3938V33.3938V33.3939V33.3939V33.394V33.394V33.394V33.3941V33.3941V33.3942V33.3942V33.3942V33.3943V33.3943V33.3944V33.3944V33.3944V33.3945V33.3945V33.3946V33.3946V33.3946V33.3947V33.3947V33.3948V33.3948V33.3949V33.3949V33.3949V33.395V33.395V33.3951V33.3951V33.3951V33.3952V33.3952V33.3953V33.3953V33.3953V33.3954V33.3954V33.3955V33.3955V33.3955V33.3956V33.3956V33.3957V33.3957V33.3958V33.3958V33.3958V33.3959V33.3959V33.396V33.396V33.396V33.3961V33.3961V33.3962V33.3962V33.3962V33.3963V33.3963V33.3964V33.3964V33.3964C17.609 33.4144 17.6117 33.433 17.6132 33.4435L17.6135 33.4456L17.6156 33.4604C17.616 33.4645 17.616 33.466 17.616 33.466C17.616 33.4771 17.6174 33.487 17.6184 33.4933C17.6194 33.4995 17.6206 33.5056 17.6214 33.5096L17.6216 33.5102L17.6231 33.5183C17.624 33.5539 17.6361 33.5856 17.6409 33.5981C17.6416 33.5999 17.6422 33.6014 17.6425 33.6023C17.6431 33.604 17.6437 33.6067 17.6457 33.6182L17.6459 33.6197C17.6476 33.6295 17.6505 33.6467 17.6566 33.6649L17.6589 33.6717L17.6606 33.675C17.6608 33.6758 17.6611 33.6769 17.6615 33.6783L17.6618 33.6794C17.6632 33.6851 17.6663 33.6976 17.6724 33.7116L17.6919 33.7691L17.6942 33.7759L17.6975 33.7823L17.7008 33.7889V33.7952L17.706 33.8108C17.7123 33.8293 17.7211 33.8463 17.7257 33.8553C17.7317 33.8671 17.7335 33.871 17.7343 33.8734L17.7366 33.8802L17.7398 33.8866L17.7583 33.9229C17.7694 33.9519 17.7866 33.9784 17.805 33.9991C17.8068 34.0018 17.8084 34.0042 17.8099 34.0063C17.8137 34.0118 17.8177 34.0169 17.8201 34.0201L17.8253 34.0272L17.832 34.0402L17.8415 34.0496C17.8422 34.0506 17.8436 34.0528 17.846 34.0567L17.8469 34.0582C17.8516 34.066 17.8626 34.0843 17.8789 34.1003L17.949 34.029L17.8789 34.1003C17.8792 34.1006 17.8796 34.101 17.8803 34.1018C17.8811 34.1028 17.8822 34.1043 17.8839 34.1068L17.8908 34.1174C17.8918 34.119 17.893 34.1208 17.8942 34.1227C17.8964 34.126 17.8988 34.1298 17.9015 34.1338L17.9071 34.142L17.9142 34.1489L17.9177 34.1529L17.9266 34.1633C17.9323 34.1699 17.9423 34.181 17.9572 34.1914C17.9666 34.2008 17.9728 34.2077 17.9792 34.2172L17.9848 34.2254L17.9919 34.2324L18.0272 34.2671L18.0973 34.1959L18.0272 34.2671C18.0383 34.2781 18.051 34.288 18.0588 34.2942L18.0602 34.2953C18.0701 34.3031 18.0742 34.3065 18.0766 34.3088C18.0894 34.3214 18.1019 34.3305 18.1085 34.3354C18.116 34.3409 18.1176 34.3423 18.1189 34.3436L18.1891 34.2723L18.119 34.3436C18.1283 34.3528 18.1376 34.3597 18.1449 34.3646C18.152 34.3694 18.159 34.3735 18.163 34.3758L18.1705 34.3804C18.188 34.397 18.2068 34.4072 18.2168 34.4126C18.2207 34.4147 18.2239 34.4163 18.2264 34.4177C18.2328 34.4211 18.2361 34.4228 18.2401 34.4254L18.2397 34.4261L18.2509 34.4316C18.2646 34.4383 18.2657 34.4394 18.2671 34.4408L18.2672 34.4409L18.2743 34.4478L18.2825 34.4532C18.301 34.4653 18.3208 34.4737 18.3319 34.4783L18.3338 34.4792C18.3403 34.4819 18.3445 34.4837 18.3482 34.4854L18.3505 34.4866C18.3635 34.4964 18.3756 34.5015 18.3828 34.5044C18.3897 34.5071 18.3903 34.5072 18.391 34.5075C18.3912 34.5076 18.3915 34.5077 18.3921 34.508L18.413 34.5183H18.422C18.4329 34.5228 18.443 34.5265 18.451 34.5295C18.4658 34.5349 18.4751 34.5385 18.4839 34.5428L18.5047 34.5531H18.5125C18.5158 34.5541 18.5197 34.5552 18.5239 34.5562C18.5291 34.5575 18.5347 34.5585 18.5406 34.5591C18.5665 34.5655 18.5946 34.5723 18.6287 34.579L18.6316 34.5795C18.6339 34.5803 18.6388 34.5819 18.644 34.5833C18.6469 34.5841 18.6509 34.5851 18.6556 34.5859C18.6715 34.5902 18.6867 34.5923 18.6956 34.5935L18.6977 34.5938C18.7042 34.5947 18.7084 34.5953 18.712 34.596C18.7148 34.5965 18.7159 34.5968 18.7159 34.5968L18.725 34.5998L18.7347 34.601L18.7373 34.6013C18.7921 34.608 18.8537 34.6156 18.9164 34.6156H18.9164H18.9165H18.9165H18.9165H18.9166H18.9166H18.9167H18.9167H18.9167H18.9168H18.9168H18.9169H18.9169H18.9169H18.917H18.917H18.9171H18.9171H18.9172H18.9172H18.9172H18.9173H18.9173H18.9174H18.9174H18.9174H18.9175H18.9175H18.9176H18.9176H18.9177H18.9177H18.9177H18.9178H18.9178H18.9179H18.9179H18.9179H18.918H18.918H18.9181H18.9181H18.9181H18.9182H18.9182H18.9183H18.9183H18.9184H18.9184H18.9184H18.9185H18.9185H18.9186H18.9186H18.9186H18.9187H18.9187H18.9188H18.9188H18.9188H18.9189H18.9189H18.919H18.919H18.9191H18.9191H18.9191H18.9192H18.9192H18.9193H18.9193H18.9193H18.9194H18.9194H18.9195H18.9195H18.9196H18.9196H18.9196H18.9197H18.9197H18.9198H18.9198H18.9198H18.9199H18.9199H18.92H18.92H18.92H18.9201H18.9201H18.9202H18.9202H18.9203H18.9203H18.9203H18.9204H18.9204H18.9205H18.9205H18.9205H18.9206H18.9206H18.9207H18.9207H18.9208H18.9208H18.9208H18.9209H18.9209H18.921H18.921H18.921H18.9211H18.9211H18.9212H18.9212H18.9212H18.9213H18.9213H18.9214H18.9214H18.9215H18.9215H18.9215H18.9216H18.9216H18.9217H18.9217H18.9217H18.9218H18.9218H18.9219H18.9219H18.922H18.922H18.922H18.9221H18.9221H18.9222H18.9222H18.9222H18.9223H18.9223H18.9224H18.9224H18.9224H18.9225H18.9225H18.9226H18.9226H18.9227H18.9227H18.9227H18.9228H18.9228H18.9229H18.9229H18.9229H18.923H18.923H18.9231H18.9231H18.9232H18.9232H18.9232H18.9233H18.9233H18.9234H18.9234H18.9234H18.9235H18.9235H18.9236H18.9236H18.9236H18.9237H18.9237H18.9238H18.9238H18.9239H18.9239H18.9239H18.924H18.924H18.9241H18.9241H18.9241H18.9242H18.9242H18.9243H18.9243H18.9244H18.9244H18.9244H18.9245H18.9245H18.9246H18.9246H18.9246H18.9247H18.9247H18.9248H18.9248H18.9248H18.9249H18.9249H18.925H18.925H18.9251H18.9251H18.9251H18.9252H18.9252H18.9253H18.9253H18.9253H18.9254H18.9254H18.9255H18.9255H18.9256H18.9256H18.9256H18.9257H18.9257H18.9258H18.9258H18.9258H18.9259H18.9259H18.926H18.926H18.926H18.9261H18.9261H18.9262H18.9262H18.9263H18.9263H18.9263H18.9264H18.9264H18.9265H18.9265H18.9265H18.9266H18.9266H18.9267H18.9267H18.9268H18.9268H18.9268H18.9269H18.9269H18.927H18.927H18.927H18.9271H18.9271H18.9272H18.9272H18.9272H18.9273H18.9273H18.9274H18.9274H18.9275H18.9275H18.9275H18.9276H18.9276H18.9277H18.9277H18.9277H18.9278H18.9278H18.9279H18.9279H18.928H18.928H18.928H18.9281H18.9281H18.9282H18.9282H18.9282H18.9283H18.9283H18.9284H18.9284H18.9284H18.9285H18.9285H18.9286H18.9286H18.9287H18.9287H18.9287H18.9288H18.9288H18.9289H18.9289H18.9289H18.929H18.929H18.9291H18.9291H18.9292H18.9292H18.9292H18.9293H18.9293H18.9294H18.9294H18.9294H18.9295H18.9295H18.9296H18.9296H18.9296H18.9297H18.9297H18.9298H18.9298H18.9299H18.9299H18.9299H18.93H18.93H18.9301H18.9301H18.9301H18.9302H18.9302H18.9303H18.9303H18.9304H18.9304H18.9304H18.9305H18.9305H18.9306H18.9306H18.9306H18.9307H18.9307H18.9308H18.9308H18.9308H18.9309H18.9309H18.931H18.931H18.9311H18.9311H18.9311H18.9312H18.9312H18.9313H18.9313H18.9313H18.9314H18.9314H18.9315H18.9315H18.9316H18.9316H18.9316H18.9317H18.9317H18.9318H18.9318H18.9318H18.9319H18.9319H18.932H18.932H18.932H18.9321H18.9321H18.9322H18.9322H18.9323H18.9323H18.9323H18.9324H18.9324H18.9325H18.9325H18.9325H18.9326H18.9326H18.9327H18.9327H18.9327H18.9328H18.9328H18.9329H18.9329H18.933H18.933H18.933H18.9331H18.9331H18.9332H18.9332H18.9332H18.9333H18.9333H18.9334H18.9334H18.9335H18.9335H18.9335H18.9336H18.9336H18.9337H18.9337H18.9337H18.9338H18.9338H18.9339H18.9339H18.9339H18.934H18.934H18.9341H18.9341H18.9342H18.9342H18.9342H18.9343H18.9343H18.9344H18.9344H18.9344H18.9345H18.9345H18.9346H18.9346H18.9347H18.9347H18.9347H18.9348H18.9348H18.9349H18.9349H18.9349H18.935H18.935H18.9351H18.9351H18.9351H18.9352H18.9352H18.9353H18.9353H18.9354H18.9354H18.9354H18.9355H18.9355H18.9356H18.9356H18.9356H18.9357H18.9357H18.9358H18.9358H18.9359H18.9359H18.9359H18.936H18.936H18.9361H18.9361H18.9361H18.9362H18.9362H18.9363H18.9363H18.9363H18.9364H18.9364H18.9365H18.9365H18.9366H18.9366H18.9366H18.9367H18.9367H18.9368H18.9368H18.9368H18.9369H18.9369H18.937H18.937H18.9371H18.9371H18.9371H18.9372H18.9372H18.9373H18.9373H18.9373H18.9374H18.9374H18.9375H18.9375H18.9375H18.9376H18.9377H18.9378H18.9379H18.938H18.938H18.9381H18.9382H18.9383H18.9384H18.9384H18.9385H18.9386H18.9387H18.9388H18.9389H18.9389H18.939H18.9391H18.9392H18.9393H18.9393H18.9394H18.9395H18.9396H18.9396H18.9397H18.9398H18.9399H18.94H18.94H18.9401H18.9402H18.9403H18.9404H18.9404H18.9405H18.9406H18.9407H18.9407H18.9408H18.9409H18.941H18.941H18.9411H18.9412H18.9413H18.9413H18.9414H18.9415H18.9416H18.9416H18.9417H18.9418H18.9419H18.9419H18.942H18.9421H18.9422H18.9422H18.9423H18.9424H18.9425H18.9425H18.9426H18.9427H18.9428H18.9428H18.9429H18.943H18.9431H18.9431H18.9432H18.9433H18.9433H18.9434H18.9435H18.9436H18.9436H18.9437H18.9438H18.9438H18.9439H18.944H18.9441H18.9441H18.9442H18.9443H18.9443H18.9444H18.9445H18.9446H18.9446H18.9447H18.9448H18.9448H18.9449H18.945H18.9451H18.9451H18.9452H18.9453H18.9453H18.9454H18.9455H18.9455H18.9456H18.9457H18.9457H18.9458H18.9459H18.946H18.946H18.9461H18.9462H18.9462H18.9463H18.9464H18.9464H18.9465H18.9466H18.9466H18.9467H18.9468H18.9468H18.9469H18.947H18.947H18.9471H18.9472H18.9472H18.9473H18.9474H18.9474H18.9475H18.9476H18.9476H18.9477H18.9478H18.9478H18.9479H18.948H18.948H18.9481H18.9482H18.9482H18.9483H18.9484H18.9484H18.9485H18.9486H18.9486H18.9487H18.9488H18.9488H18.9489H18.949H18.949H18.9491H18.9492H18.9492H18.9493H18.9493H18.9494H18.9495H18.9495H18.9496H18.9497H18.9497H18.9498H18.9499H18.9499H18.95H18.9501H18.9501H18.9502H18.9502H18.9503H18.9504H18.9504H18.9505H18.9506H18.9506H18.9507H18.9508H18.9508H18.9509H18.9509H18.951H18.9511H18.9511H18.9512H18.9513H18.9513H18.9514H18.9515H18.9515H18.9516H18.9516H18.9517H18.9518H18.9518H18.9519H18.952H18.952H18.9521H18.9521H18.9522H18.9523H18.9523H18.9524H18.9525H18.9525H18.9526H18.9526H18.9527H18.9528H18.9528H18.9529H18.953H18.953H18.9531H18.9531H18.9532H18.9533H18.9533H18.9534H18.9535H18.9535H18.9536H18.9536H18.9537H18.9538H18.9538H18.9539H18.954H18.954H18.9541H18.9541H18.9542H18.9543H18.9543H18.9544H18.9545H18.9545H18.9546H18.9546H18.9547H18.9548H18.9548H18.9549H18.955H18.955H18.9551H18.9551H18.9552H18.9553H18.9553H18.9554H18.9554H18.9555H18.9556H18.9556H18.9557H18.9558H18.9558H18.9559H18.9559H18.956H18.9561H18.9561H18.9562H18.9563H18.9563H18.9564H18.9564H18.9565H18.9566H18.9566H18.9567H18.9568H18.9568H18.9569H18.9569H18.957H18.9571H18.9571H18.9572H18.9573H18.9573H18.9574H18.9574H18.9575H18.9576H18.9576H18.9577H18.9578H18.9578H18.9579H18.9579H18.958H18.9581H18.9581H18.9582H18.9583H18.9583H18.9584H18.9584H18.9585H18.9586H18.9586H18.9587H18.9588H18.9588H18.9589H18.9589H18.959H18.9591H18.9591H18.9592H18.9593H18.9593H18.9594H18.9595H18.9595H18.9596H18.9596H18.9597H18.9598H18.9598H18.9599H18.96H18.96H18.9601H18.9602H18.9602H18.9603H18.9603H18.9604H18.9605H18.9605H18.9606H18.9607H18.9607H18.9608H18.9609H18.9609H18.961H18.9611H18.9611H18.9612H18.9613H18.9613H18.9614H18.9614H18.9615H18.9616H18.9616H18.9617H18.9618H18.9618H18.9619H18.962H18.962H18.9621H18.9622H18.9622H18.9623H18.9624H18.9624H18.9625H18.9626H18.9626H18.9627H18.9628H18.9628H18.9629H18.963H18.963H18.9631H18.9632H18.9632H18.9633H18.9634H18.9634H18.9635H18.9636H18.9636H18.9637H18.9638H18.9638H18.9639H18.964H18.964H18.9641H18.9642H18.9642H18.9643H18.9644H18.9645H18.9645H18.9646H18.9647H18.9647H18.9648H18.9649H18.9649H18.965H18.9651H18.9651H18.9652H18.9653H18.9654H18.9654H18.9655H18.9656H18.9656H18.9657H18.9658H18.9658H18.9659H18.966H18.9661H18.9661H18.9662H18.9663H18.9663H18.9664H18.9665H18.9666H18.9666H18.9667H18.9668H18.9668H18.9669H18.967H18.9671H18.9671H18.9672H18.9673H18.9673H18.9674H18.9675H18.9676H18.9676H18.9677H18.9678H18.9679H18.9679H18.968H18.9681H18.9682H18.9682H18.9683H18.9684H18.9685H18.9685H18.9686H18.9687H18.9688H18.9688H18.9689H18.969H18.9691H18.9691H18.9692H18.9693H18.9694H18.9694H18.9695H18.9696H18.9697H18.9697H18.9698H18.9699H18.97H18.9701H18.9701H18.9702H18.9703H18.9704H18.9704H18.9705H18.9706H18.9707H18.9708H18.9708H18.9709H18.971H18.9711H18.9711H18.9712H18.9713H18.9714H18.9715H18.9715H18.9716H18.9717H18.9718H18.9719H18.972H18.972H18.9721H18.9722H18.9723H18.9724H18.9724H18.9725H18.9726H18.9727H18.9728H18.9729H18.9799C19.0217 34.6156 19.0674 34.6084 19.1025 34.6017H19.1121L19.1239 34.5988C19.1365 34.5957 19.151 34.5925 19.1672 34.589L19.168 34.5888C19.1806 34.5861 19.1942 34.5831 19.2072 34.58C19.2198 34.5786 19.2299 34.5758 19.2359 34.5739H19.243L19.2582 34.5689L19.3218 34.5481L19.3221 34.549L19.3348 34.5428L19.3349 34.5427C19.3351 34.5426 19.3353 34.5425 19.3394 34.5411L19.3399 34.541C19.3459 34.539 19.3567 34.5355 19.3701 34.5289L19.4475 29.3724ZM19.4548 34.4941C19.436 34.5034 19.4177 34.5101 19.4043 34.5151L19.4029 34.5156C19.3881 34.521 19.3788 34.5246 19.3701 34.5289L19.3259 34.4392L19.4548 34.4941ZM19.4548 34.4941C19.4675 34.4879 19.4771 34.4815 19.4825 34.478M19.4548 34.4941L19.4825 34.478M19.4825 34.478L19.4831 34.4776M19.4825 34.478L19.4831 34.4776M19.4831 34.4776C19.4849 34.4764 19.4862 34.4756 19.4871 34.475M19.4831 34.4776L19.4871 34.475M19.4871 34.475C19.5149 34.4644 19.5405 34.4482 19.5608 34.4308C19.567 34.4272 19.5718 34.424 19.5749 34.422C19.5802 34.4185 19.5809 34.4181 19.5819 34.4177C19.6041 34.4067 19.6226 34.3935 19.6341 34.3854C19.6432 34.379 19.649 34.375 19.6537 34.3722C19.6567 34.3711 19.6598 34.3697 19.6631 34.3681C19.6736 34.363 19.6863 34.3545 19.6976 34.3411C19.7219 34.323 19.7495 34.3014 19.7773 34.2741L19.7914 34.2602L19.7213 34.1889L19.7915 34.2602L19.7916 34.26L19.7917 34.2599L19.7918 34.2598L19.792 34.2597L19.7921 34.2596L19.7922 34.2594L19.7923 34.2593L19.7924 34.2592L19.7926 34.2591L19.7927 34.2589L19.7928 34.2588L19.7929 34.2587L19.7931 34.2586L19.7932 34.2585L19.7933 34.2583L19.7934 34.2582L19.7936 34.2581L19.7937 34.258L19.7938 34.2578L19.7939 34.2577L19.7941 34.2576L19.7942 34.2575L19.7943 34.2574L19.7944 34.2572L19.7946 34.2571L19.7947 34.257L19.7948 34.2569L19.7949 34.2567L19.7951 34.2566L19.7952 34.2565L19.7953 34.2564L19.7954 34.2563L19.7956 34.2561L19.7957 34.256L19.7958 34.2559L19.7959 34.2558L19.796 34.2556L19.7962 34.2555L19.7963 34.2554L19.7964 34.2553L19.7965 34.2552L19.7967 34.255L19.7968 34.2549L19.7969 34.2548L19.797 34.2547L19.7972 34.2545L19.7973 34.2544L19.7974 34.2543L19.7975 34.2542L19.7977 34.2541L19.7978 34.2539L19.7979 34.2538L19.798 34.2537L19.7982 34.2536L19.7983 34.2534L19.7984 34.2533L19.7985 34.2532L19.7987 34.2531L19.7988 34.253L19.7989 34.2528L19.799 34.2527L19.7992 34.2526L19.7993 34.2525L19.7994 34.2523L19.7995 34.2522L19.7996 34.2521L19.7998 34.252L19.7999 34.2519L19.8 34.2517L19.8001 34.2516L19.8003 34.2515L19.8004 34.2514L19.8005 34.2512L19.8006 34.2511L19.8008 34.251L19.8009 34.2509L19.801 34.2508L19.8011 34.2506L19.8013 34.2505L19.8014 34.2504L19.8015 34.2503L19.8016 34.2501L19.8018 34.25L19.8019 34.2499L19.802 34.2498L19.8021 34.2497L19.8023 34.2495L19.8024 34.2494L19.8025 34.2493L19.8026 34.2492L19.8028 34.249L19.8029 34.2489L19.803 34.2488L19.8031 34.2487L19.8032 34.2486L19.8034 34.2484L19.8035 34.2483L19.8036 34.2482L19.8037 34.2481L19.8039 34.2479L19.804 34.2478L19.8041 34.2477L19.8042 34.2476L19.8044 34.2475L19.8045 34.2473L19.8046 34.2472L19.8047 34.2471L19.8049 34.247L19.805 34.2468L19.8051 34.2467L19.8052 34.2466L19.8054 34.2465L19.8055 34.2464L19.8056 34.2462L19.8057 34.2461L19.8059 34.246L19.806 34.2459L19.8061 34.2457L19.8062 34.2456L19.8063 34.2455L19.8065 34.2454L19.8066 34.2453L19.8067 34.2451L19.8068 34.245L19.807 34.2449L19.8071 34.2448L19.8072 34.2446L19.8073 34.2445L19.8075 34.2444L19.8076 34.2443L19.8077 34.2442L19.8078 34.244L19.808 34.2439L19.8081 34.2438L19.8082 34.2437L19.8083 34.2435L19.8085 34.2434L19.8086 34.2433L19.8087 34.2432L19.8088 34.2431L19.809 34.2429L19.8091 34.2428L19.8092 34.2427L19.8093 34.2426L19.8095 34.2424L19.8096 34.2423L19.8097 34.2422L19.8098 34.2421L19.8099 34.242L19.8101 34.2418L19.8102 34.2417L19.8103 34.2416L19.8104 34.2415L19.8106 34.2413L19.8107 34.2412L19.8108 34.2411L19.8109 34.241L19.8111 34.2409L19.8112 34.2407L19.8113 34.2406L19.8114 34.2405L19.8116 34.2404L19.8117 34.2402L19.8118 34.2401L19.8119 34.24L19.8121 34.2399L19.8122 34.2398L19.8123 34.2396L19.8124 34.2395L19.8126 34.2394L19.8127 34.2393L19.8128 34.2391L19.8129 34.239L19.8131 34.2389L19.8132 34.2388L19.8133 34.2387L19.8134 34.2385L19.8135 34.2384L19.8137 34.2383L19.8138 34.2382L19.8139 34.238L19.814 34.2379L19.8142 34.2378L19.8143 34.2377L19.8144 34.2376L19.8145 34.2374L19.8147 34.2373L19.8148 34.2372L19.8149 34.2371L19.815 34.2369L19.8152 34.2368L19.8153 34.2367L19.8154 34.2366L19.8155 34.2365L19.8157 34.2363L19.8158 34.2362L19.8159 34.2361L19.816 34.236L19.8162 34.2358L19.8163 34.2357L19.8164 34.2356L19.8165 34.2355L19.8167 34.2354L19.8168 34.2352L19.8169 34.2351L19.817 34.235L19.8171 34.2349L19.8173 34.2347L19.8174 34.2346L19.8175 34.2345L19.8176 34.2344L19.8178 34.2343L19.8179 34.2341L19.818 34.234L19.8181 34.2339L19.8183 34.2338L19.8184 34.2337L19.8185 34.2335L19.8186 34.2334L19.8188 34.2333L19.8189 34.2332L19.819 34.233L19.8191 34.2329L19.8193 34.2328L19.8194 34.2327L19.8195 34.2325L19.8196 34.2324L19.8198 34.2323L19.8199 34.2322L19.82 34.2321L19.8201 34.2319L19.8203 34.2318L19.8204 34.2317L19.8205 34.2316L19.8206 34.2315L19.8207 34.2313L19.8209 34.2312L19.821 34.2311L19.8211 34.231L19.8212 34.2308L19.8214 34.2307L19.8215 34.2306L19.8216 34.2305L19.8217 34.2304L19.8219 34.2302L19.822 34.2301L19.8221 34.23L19.8222 34.2299L19.8224 34.2297L19.8225 34.2296L19.8226 34.2295L19.8227 34.2294L19.8229 34.2292L19.823 34.2291L19.8231 34.229L19.8232 34.2289L19.8234 34.2288L19.8235 34.2286L19.8236 34.2285L19.8237 34.2284L19.8239 34.2283L19.824 34.2282L19.8241 34.228L19.8242 34.2279L19.8243 34.2278L19.8245 34.2277L19.8246 34.2275L19.8247 34.2274L19.8248 34.2273L19.825 34.2272L19.8251 34.2271L19.8252 34.2269L19.8253 34.2268L19.8255 34.2267L19.8256 34.2266L19.8257 34.2264L19.8258 34.2263L19.826 34.2262L19.8261 34.2261L19.8262 34.226L19.8263 34.2258L19.8265 34.2257L19.8266 34.2256L19.8267 34.2255L19.8268 34.2253L19.827 34.2252L19.8271 34.2251L19.8272 34.225L19.8273 34.2249L19.8274 34.2247L19.8276 34.2246L19.8277 34.2245L19.8278 34.2244L19.8279 34.2242L19.8281 34.2241L19.8282 34.224L19.8283 34.2239L19.8284 34.2238L19.8286 34.2236L19.8287 34.2235L19.8288 34.2234L19.8289 34.2233L19.8291 34.2231L19.8292 34.223L19.8293 34.2229L19.8294 34.2228L19.8296 34.2227L19.8297 34.2225L19.8298 34.2224L19.8299 34.2223L19.8301 34.2222L19.8302 34.222L19.8303 34.2219L19.8304 34.2218L19.8306 34.2217L19.8307 34.2216L19.8308 34.2214L19.8309 34.2213L19.831 34.2212L19.8312 34.2211L19.8313 34.2209L19.8314 34.2208L19.8315 34.2207L19.8317 34.2206L19.8318 34.2205L19.8319 34.2203L19.832 34.2202L19.8322 34.2201L19.8323 34.22L19.8324 34.2198L19.8325 34.2197L19.8327 34.2196L19.8328 34.2195L19.8329 34.2194L19.833 34.2192L19.8332 34.2191L19.8333 34.219L19.8334 34.2189L19.8335 34.2187L19.8337 34.2186L19.8338 34.2185L19.8339 34.2184L19.834 34.2183L19.8342 34.2181L19.8343 34.218L19.8344 34.2179L19.8345 34.2178L19.8346 34.2176L19.8348 34.2175L19.8349 34.2174L19.835 34.2173L19.8351 34.2172L19.8353 34.217L19.8354 34.2169L19.8355 34.2168L19.8356 34.2167L19.8358 34.2165L19.8359 34.2164L19.836 34.2163L19.8361 34.2162L19.8363 34.2161L19.8364 34.2159L19.8365 34.2158L19.8366 34.2157L19.8368 34.2156L19.8369 34.2154L19.837 34.2153L19.8371 34.2152L19.8373 34.2151L19.8374 34.215L19.8375 34.2148L19.8376 34.2147L19.8378 34.2146L19.8379 34.2145L19.838 34.2143L19.8381 34.2142L19.8382 34.2141L19.8384 34.214L19.8385 34.2139L19.8386 34.2137L19.8387 34.2136L19.8389 34.2135L19.839 34.2134L19.8391 34.2132L19.8392 34.2131L19.8394 34.213L19.8395 34.2129L19.8396 34.2128L19.8397 34.2126L19.8399 34.2125L19.84 34.2124L19.8401 34.2123L19.8402 34.2121L19.8404 34.212L19.8405 34.2119L19.8406 34.2118L19.8407 34.2117L19.8409 34.2115L19.841 34.2114L19.8411 34.2113L19.8412 34.2112L19.8414 34.211L19.8415 34.2109L19.8416 34.2108L19.8417 34.2107L19.8418 34.2106L19.842 34.2104L19.8421 34.2103L19.8422 34.2102L19.8423 34.2101L19.8425 34.2099L19.8426 34.2098L19.8427 34.2097L19.8428 34.2096L19.843 34.2095L19.8431 34.2093L19.8432 34.2092L19.8433 34.2091L19.8435 34.209L19.8436 34.2088L19.8437 34.2087L19.8438 34.2086L19.844 34.2085L19.8441 34.2084L19.8442 34.2082L19.8443 34.2081L19.8445 34.208L19.8446 34.2079L19.8447 34.2077L19.8448 34.2076L19.8449 34.2075L19.8451 34.2074L19.8452 34.2073L19.8453 34.2071L19.8454 34.207L19.8456 34.2069L19.8457 34.2068L19.8458 34.2066L19.8459 34.2065L19.8461 34.2064L19.8462 34.2063L19.8463 34.2062L19.8464 34.206L19.4871 34.475ZM17.7029 33.7935C17.7029 33.7936 17.7029 33.7936 17.7029 33.7935L17.7029 33.7935Z" fill="white" stroke="white" stroke-width="0.2"/>
</g>
<defs>
<clipPath id="clip0_1803_126">
<rect width="52" height="52" fill="white" transform="translate(0 0.515625)"/>
</clipPath>
</defs>
</svg>
